<?xml version="1.0" encoding="utf-8"?>
<!-- Generator: Adobe Illustrator 16.0.0, SVG Export Plug-In . SVG Version: 6.00 Build 0)  -->
<!DOCTYPE svg PUBLIC "-//W3C//DTD SVG 1.1//EN" "http://www.w3.org/Graphics/SVG/1.1/DTD/svg11.dtd">
<svg version="1.1" id="Layer_1" xmlns="http://www.w3.org/2000/svg" xmlns:xlink="http://www.w3.org/1999/xlink" x="0px" y="0px"
	 width="120.775px" height="117.793px" viewBox="0 0 120.775 117.793" enable-background="new 0 0 120.775 117.793"
	 xml:space="preserve">
<g id="Layer_1_1_" display="none">
	<rect x="-776.792" y="176.963" display="inline" width="530.974" height="275.986"/>
	<path display="inline" fill="#191717" d="M-624.184,8.404c-8.995,0-16.289,7.293-16.289,16.291c0,7.196,4.667,13.302,11.141,15.456
		c0.814,0.149,1.112-0.354,1.112-0.785c0-0.387-0.014-1.411-0.022-2.771c-4.53,0.984-5.486-2.184-5.486-2.184
		c-0.741-1.882-1.81-2.383-1.81-2.383c-1.479-1.011,0.112-0.99,0.112-0.99c1.635,0.115,2.495,1.679,2.495,1.679
		c1.453,2.489,3.813,1.771,4.741,1.354c0.147-1.053,0.568-1.771,1.033-2.178c-3.616-0.411-7.42-1.809-7.42-8.051
		c0-1.778,0.636-3.232,1.678-4.371c-0.167-0.412-0.728-2.068,0.159-4.311c0,0,1.368-0.438,4.479,1.67
		c1.299-0.361,2.693-0.542,4.078-0.548c1.383,0.006,2.776,0.187,4.078,0.548c3.109-2.108,4.475-1.67,4.475-1.67
		c0.889,2.243,0.33,3.899,0.162,4.311c1.044,1.139,1.674,2.593,1.674,4.371c0,6.258-3.809,7.635-7.438,8.038
		c0.585,0.503,1.105,1.497,1.105,3.017c0,2.178-0.02,3.935-0.02,4.469c0,0.436,0.293,0.942,1.12,0.783
		c6.467-2.158,11.13-8.26,11.13-15.454C-607.894,15.697-615.188,8.404-624.184,8.404z"/>
	<g display="inline">
		<path fill="#191717" d="M-426.184-40.605c-33.348,0-60.388,27.035-60.388,60.388c0,26.681,17.303,49.316,41.297,57.302
			c3.018,0.56,4.126-1.312,4.126-2.905c0-1.438-0.057-6.197-0.082-11.242c-16.8,3.652-20.346-7.125-20.346-7.125
			c-2.747-6.979-6.704-8.836-6.704-8.836c-5.479-3.748,0.412-3.671,0.412-3.671c6.063,0.426,9.258,6.224,9.258,6.224
			c5.386,9.231,14.127,6.563,17.572,5.02c0.542-3.902,2.106-6.567,3.834-8.075c-13.413-1.526-27.514-6.705-27.514-29.844
			c0-6.593,2.359-11.98,6.223-16.209c-0.627-1.521-2.693-7.663,0.585-15.981c0,0,5.071-1.622,16.61,6.191
			c4.817-1.338,9.983-2.009,15.115-2.033c1.765,0.008,3.533,0.093,5.291,0.255c3.354,0.309,6.67,0.899,9.837,1.778
			c11.525-7.813,16.59-6.191,16.59-6.191c3.287,8.318,1.22,14.46,0.593,15.981c3.872,4.229,6.215,9.616,6.215,16.209
			c0,23.194-14.127,28.301-27.573,29.796c2.166,1.874,4.096,5.549,4.096,11.183c0,8.081-0.069,14.583-0.069,16.573
			c0,1.606,1.087,3.489,4.147,2.896c23.98-7.994,41.263-30.622,41.263-57.294C-365.796-13.57-392.833-40.605-426.184-40.605z"/>
		<path fill="#191717" d="M-463.699,46.098c-0.133,0.301-0.604,0.391-1.034,0.185c-0.438-0.197-0.685-0.606-0.542-0.907
			c0.13-0.309,0.603-0.395,1.04-0.188C-463.798,45.384-463.548,45.797-463.699,46.098L-463.699,46.098z"/>
		<path fill="#191717" d="M-461.253,48.826c-0.288,0.267-0.852,0.143-1.232-0.279c-0.396-0.421-0.47-0.984-0.178-1.255
			c0.297-0.267,0.844-0.142,1.238,0.279C-461.029,47.997-460.952,48.556-461.253,48.826L-461.253,48.826z"/>
		<path fill="#191717" d="M-458.872,52.304c-0.37,0.258-0.976,0.017-1.35-0.521c-0.37-0.537-0.37-1.182,0.009-1.439
			c0.374-0.258,0.971-0.025,1.351,0.507C-458.494,51.396-458.494,52.041-458.872,52.304L-458.872,52.304z"/>
		<path fill="#191717" d="M-455.61,55.664c-0.331,0.365-1.036,0.267-1.553-0.231c-0.527-0.486-0.675-1.178-0.344-1.543
			c0.336-0.365,1.045-0.263,1.564,0.231C-455.417,54.607-455.258,55.303-455.61,55.664L-455.61,55.664z"/>
		<path fill="#191717" d="M-451.11,57.615c-0.146,0.473-0.825,0.688-1.51,0.486c-0.684-0.207-1.13-0.761-0.991-1.238
			c0.142-0.477,0.823-0.7,1.513-0.485C-451.416,56.584-450.969,57.134-451.11,57.615L-451.11,57.615z"/>
		<path fill="#191717" d="M-446.168,57.977c0.018,0.498-0.563,0.911-1.281,0.92c-0.722,0.017-1.307-0.387-1.313-0.877
			c0-0.503,0.567-0.911,1.289-0.924C-446.757,57.082-446.168,57.482-446.168,57.977L-446.168,57.977z"/>
		<path fill="#191717" d="M-441.569,57.194c0.086,0.485-0.413,0.984-1.126,1.117c-0.701,0.129-1.351-0.172-1.439-0.653
			c-0.087-0.498,0.421-0.997,1.121-1.126C-442.3,56.408-441.66,56.7-441.569,57.194L-441.569,57.194z"/>
	</g>
	<g display="inline">
		<g>
			
				<line fill="none" stroke="#1981BC" stroke-linecap="round" stroke-miterlimit="10" x1="-551.895" y1="-46.539" x2="-551.895" y2="-46.039"/>
			
				<line fill="none" stroke="#1981BC" stroke-linecap="round" stroke-miterlimit="10" stroke-dasharray="0.9999,1.9999" x1="-551.895" y1="-44.039" x2="-551.895" y2="89.954"/>
			
				<line fill="none" stroke="#1981BC" stroke-linecap="round" stroke-miterlimit="10" x1="-551.895" y1="90.954" x2="-551.895" y2="91.454"/>
		</g>
	</g>
	<g display="inline">
		<path fill="#0072BC" d="M-643.517,105.47c-0.38-0.276-0.866-0.413-1.458-0.413c-0.24,0-0.477,0.023-0.708,0.07
			c-0.232,0.049-0.438,0.129-0.618,0.24c-0.18,0.113-0.324,0.263-0.432,0.451c-0.108,0.188-0.162,0.422-0.162,0.701
			c0,0.264,0.078,0.479,0.233,0.643c0.156,0.164,0.364,0.298,0.624,0.4c0.261,0.104,0.555,0.19,0.883,0.26
			c0.327,0.066,0.661,0.142,1.002,0.221c0.34,0.08,0.674,0.175,1.002,0.283c0.328,0.107,0.622,0.254,0.882,0.438
			c0.26,0.185,0.468,0.416,0.624,0.695c0.156,0.281,0.233,0.633,0.233,1.057c0,0.457-0.102,0.846-0.306,1.17
			s-0.466,0.588-0.786,0.793c-0.319,0.203-0.678,0.353-1.074,0.443c-0.396,0.092-0.789,0.139-1.182,0.139
			c-0.479,0-0.934-0.061-1.362-0.181c-0.428-0.12-0.804-0.302-1.128-0.546c-0.323-0.244-0.58-0.557-0.768-0.938
			c-0.188-0.379-0.282-0.828-0.282-1.35h1.08c0,0.36,0.07,0.67,0.21,0.93c0.141,0.262,0.324,0.475,0.552,0.643
			c0.229,0.168,0.494,0.293,0.799,0.373c0.304,0.08,0.615,0.119,0.936,0.119c0.256,0,0.514-0.023,0.774-0.072
			c0.26-0.047,0.493-0.129,0.701-0.246c0.208-0.115,0.376-0.273,0.505-0.473c0.128-0.201,0.191-0.457,0.191-0.77
			c0-0.296-0.078-0.535-0.233-0.72c-0.156-0.185-0.364-0.334-0.624-0.45c-0.261-0.115-0.555-0.21-0.883-0.281
			c-0.328-0.072-0.662-0.146-1.002-0.224c-0.34-0.075-0.674-0.163-1.002-0.265c-0.328-0.1-0.623-0.23-0.882-0.396
			s-0.468-0.376-0.624-0.636s-0.234-0.586-0.234-0.979c0-0.433,0.089-0.807,0.265-1.123c0.176-0.314,0.41-0.574,0.702-0.779
			c0.292-0.203,0.624-0.355,0.995-0.455c0.372-0.102,0.755-0.15,1.146-0.15c0.44,0,0.848,0.053,1.224,0.156s0.706,0.268,0.99,0.492
			c0.284,0.224,0.508,0.506,0.672,0.846s0.254,0.746,0.271,1.219h-1.08C-642.915,106.191-643.137,105.746-643.517,105.47z"/>
		<path fill="#0072BC" d="M-639.24,106.664v0.912h0.024c0.464-0.705,1.132-1.057,2.004-1.057c0.384,0,0.732,0.08,1.044,0.239
			c0.313,0.16,0.532,0.433,0.66,0.816c0.208-0.336,0.482-0.597,0.822-0.78c0.34-0.186,0.714-0.275,1.122-0.275
			c0.312,0,0.594,0.033,0.846,0.102s0.468,0.175,0.648,0.318c0.18,0.145,0.319,0.33,0.42,0.559c0.1,0.229,0.149,0.502,0.149,0.822
			v4.547h-1.02V108.8c0-0.192-0.018-0.372-0.048-0.54c-0.031-0.168-0.093-0.314-0.181-0.438c-0.088-0.125-0.21-0.223-0.365-0.295
			c-0.156-0.072-0.358-0.107-0.606-0.107c-0.504,0-0.9,0.145-1.188,0.432c-0.287,0.289-0.432,0.672-0.432,1.152v3.863h-1.02V108.8
			c0-0.2-0.019-0.384-0.055-0.552s-0.098-0.314-0.186-0.438c-0.088-0.125-0.206-0.221-0.354-0.289
			c-0.147-0.067-0.338-0.102-0.569-0.102c-0.296,0-0.551,0.061-0.763,0.18c-0.212,0.12-0.384,0.265-0.516,0.433
			s-0.229,0.342-0.288,0.522c-0.06,0.18-0.09,0.329-0.09,0.449v3.863h-1.021v-6.203H-639.24z"/>
		<path fill="#0072BC" d="M-625.199,113c-0.264,0-0.474-0.074-0.63-0.223c-0.155-0.147-0.233-0.391-0.233-0.727
			c-0.28,0.336-0.606,0.578-0.979,0.727c-0.372,0.147-0.773,0.223-1.206,0.223c-0.279,0-0.544-0.03-0.792-0.09
			c-0.248-0.061-0.466-0.16-0.653-0.301c-0.188-0.141-0.336-0.319-0.444-0.539c-0.108-0.221-0.162-0.486-0.162-0.799
			c0-0.353,0.061-0.641,0.18-0.863c0.12-0.225,0.278-0.406,0.475-0.547c0.195-0.141,0.42-0.246,0.672-0.318
			c0.252-0.07,0.51-0.131,0.773-0.18c0.28-0.057,0.547-0.098,0.799-0.125c0.252-0.028,0.474-0.068,0.666-0.121
			c0.191-0.051,0.344-0.127,0.456-0.229c0.111-0.101,0.168-0.246,0.168-0.438c0-0.223-0.042-0.403-0.126-0.539
			c-0.084-0.137-0.192-0.24-0.324-0.313c-0.132-0.074-0.28-0.121-0.444-0.146c-0.164-0.022-0.326-0.035-0.485-0.035
			c-0.433,0-0.792,0.082-1.08,0.246s-0.444,0.474-0.469,0.93h-1.02c0.016-0.384,0.096-0.708,0.24-0.973
			c0.144-0.265,0.336-0.478,0.575-0.642c0.24-0.164,0.517-0.282,0.828-0.354c0.313-0.071,0.641-0.106,0.984-0.106
			c0.28,0,0.558,0.02,0.834,0.061c0.276,0.039,0.526,0.121,0.75,0.246c0.224,0.123,0.404,0.298,0.54,0.521
			c0.136,0.225,0.204,0.516,0.204,0.875v3.192c0,0.24,0.014,0.416,0.042,0.526c0.027,0.113,0.122,0.168,0.281,0.168
			c0.089,0,0.192-0.02,0.313-0.06v0.792C-624.643,112.947-624.887,113-625.199,113z M-626.627,109.873
			c-0.208,0.045-0.426,0.08-0.654,0.107c-0.228,0.028-0.458,0.061-0.689,0.098c-0.232,0.035-0.44,0.094-0.624,0.174
			c-0.186,0.08-0.334,0.193-0.45,0.342s-0.174,0.35-0.174,0.605c0,0.168,0.034,0.311,0.102,0.426
			c0.068,0.117,0.156,0.211,0.265,0.283c0.107,0.07,0.235,0.123,0.384,0.154c0.147,0.033,0.298,0.049,0.45,0.049
			c0.336,0,0.624-0.045,0.863-0.139c0.24-0.092,0.437-0.207,0.589-0.349c0.151-0.14,0.264-0.291,0.336-0.455
			c0.071-0.164,0.107-0.317,0.107-0.463v-1.043C-626.251,109.76-626.419,109.83-626.627,109.873z"/>
		<path fill="#0072BC" d="M-622.439,104.3v8.567h-1.021V104.3H-622.439z"/>
		<path fill="#0072BC" d="M-619.775,104.3v8.567h-1.021V104.3H-619.775z"/>
		<path fill="#0072BC" d="M-674.938,121.963v-0.898h1.044v-0.924c0-0.505,0.146-0.887,0.438-1.146s0.719-0.391,1.278-0.391
			c0.096,0,0.206,0.008,0.33,0.022c0.124,0.017,0.234,0.041,0.33,0.072v0.889c-0.088-0.032-0.185-0.055-0.288-0.065
			c-0.104-0.012-0.2-0.019-0.288-0.019c-0.248,0-0.44,0.048-0.576,0.144c-0.136,0.098-0.204,0.28-0.204,0.553v0.863h1.2v0.899h-1.2
			v5.306h-1.02v-5.306L-674.938,121.963L-674.938,121.963z"/>
		<path fill="#0072BC" d="M-670.907,122.895c0.129-0.396,0.32-0.739,0.576-1.033c0.256-0.291,0.572-0.521,0.948-0.688
			s0.808-0.252,1.296-0.252c0.496,0,0.93,0.084,1.302,0.252s0.687,0.397,0.942,0.688c0.256,0.294,0.448,0.638,0.576,1.033
			s0.191,0.821,0.191,1.277c0,0.455-0.063,0.88-0.191,1.271c-0.128,0.393-0.32,0.733-0.576,1.025s-0.57,0.521-0.942,0.686
			c-0.372,0.162-0.806,0.244-1.302,0.244c-0.488,0-0.92-0.082-1.296-0.244c-0.376-0.164-0.692-0.394-0.948-0.686
			s-0.447-0.634-0.576-1.025c-0.128-0.393-0.191-0.816-0.191-1.271C-671.099,123.716-671.035,123.289-670.907,122.895z
			 M-669.869,125.174c0.101,0.292,0.238,0.535,0.414,0.732c0.177,0.195,0.382,0.346,0.618,0.449c0.236,0.103,0.486,0.155,0.75,0.155
			s0.514-0.053,0.75-0.155c0.236-0.104,0.442-0.254,0.618-0.449c0.176-0.197,0.313-0.44,0.414-0.732
			c0.1-0.292,0.149-0.626,0.149-1.002c0-0.377-0.05-0.71-0.149-1.002c-0.101-0.293-0.238-0.538-0.414-0.738
			c-0.176-0.199-0.382-0.352-0.618-0.455c-0.236-0.104-0.486-0.156-0.75-0.156s-0.514,0.052-0.75,0.156
			c-0.236,0.104-0.442,0.256-0.618,0.455c-0.176,0.2-0.313,0.445-0.414,0.738c-0.1,0.292-0.149,0.625-0.149,1.002
			C-670.019,124.548-669.969,124.882-669.869,125.174z"/>
		<path fill="#0072BC" d="M-662.951,121.063v1.309h0.024c0.248-0.504,0.552-0.875,0.912-1.115c0.359-0.24,0.815-0.352,1.368-0.336
			V122c-0.408,0-0.756,0.057-1.044,0.168s-0.521,0.275-0.696,0.492c-0.176,0.215-0.304,0.479-0.384,0.785
			c-0.08,0.309-0.12,0.662-0.12,1.063v2.76h-1.021v-6.203h0.96V121.063z"/>
		<path fill="#0072BC" d="M-654.059,127.268v-6.096h-2.208v-0.816c0.288,0,0.567-0.021,0.84-0.065
			c0.271-0.043,0.518-0.125,0.738-0.246c0.22-0.119,0.405-0.283,0.558-0.491s0.256-0.472,0.313-0.792h0.779v8.509h-1.02V127.268z"/>
		<path fill="#0072BC" d="M-646.115,120.008c-0.247-0.232-0.575-0.348-0.983-0.348c-0.433,0-0.78,0.105-1.044,0.316
			c-0.265,0.213-0.47,0.479-0.618,0.805c-0.148,0.324-0.25,0.674-0.306,1.051c-0.057,0.375-0.089,0.729-0.097,1.057l0.024,0.023
			c0.24-0.393,0.538-0.676,0.894-0.854c0.356-0.176,0.767-0.265,1.23-0.265c0.408,0,0.773,0.07,1.098,0.211
			c0.324,0.14,0.596,0.334,0.816,0.582c0.22,0.248,0.39,0.539,0.51,0.875c0.12,0.337,0.18,0.701,0.18,1.093
			c0,0.313-0.048,0.637-0.144,0.973s-0.254,0.643-0.475,0.918c-0.22,0.275-0.512,0.504-0.876,0.684
			c-0.363,0.182-0.813,0.271-1.35,0.271c-0.632,0-1.14-0.129-1.523-0.385c-0.385-0.256-0.681-0.584-0.889-0.983
			s-0.346-0.841-0.414-1.32c-0.067-0.479-0.102-0.942-0.102-1.392c0-0.584,0.05-1.149,0.149-1.698
			c0.101-0.547,0.271-1.033,0.511-1.457c0.239-0.424,0.56-0.765,0.96-1.021c0.399-0.256,0.903-0.385,1.512-0.385
			c0.704,0,1.264,0.186,1.68,0.559c0.416,0.371,0.656,0.91,0.721,1.613h-1.021C-645.719,120.547-645.867,120.24-646.115,120.008z
			 M-647.963,122.846c-0.216,0.1-0.4,0.236-0.552,0.408c-0.152,0.172-0.267,0.376-0.342,0.611c-0.076,0.236-0.114,0.486-0.114,0.75
			s0.04,0.512,0.12,0.744c0.08,0.231,0.193,0.432,0.342,0.6s0.332,0.303,0.552,0.402c0.22,0.101,0.47,0.149,0.75,0.149
			s0.526-0.05,0.738-0.149c0.212-0.101,0.39-0.238,0.534-0.414c0.144-0.176,0.254-0.379,0.33-0.605
			c0.075-0.229,0.113-0.467,0.113-0.715c0-0.264-0.033-0.514-0.102-0.75c-0.068-0.234-0.174-0.439-0.318-0.611
			c-0.144-0.172-0.323-0.311-0.54-0.414c-0.216-0.103-0.468-0.156-0.756-0.156S-647.747,122.746-647.963,122.846z"/>
		<path fill="#0072BC" d="M-642.143,121.063v0.842h0.023c0.168-0.346,0.433-0.596,0.792-0.75c0.36-0.156,0.756-0.234,1.188-0.234
			c0.479,0,0.897,0.088,1.254,0.264s0.652,0.414,0.888,0.715c0.236,0.3,0.414,0.646,0.534,1.037c0.12,0.394,0.18,0.81,0.18,1.248
			c0,0.439-0.058,0.855-0.174,1.248c-0.116,0.394-0.292,0.734-0.527,1.025c-0.236,0.293-0.532,0.521-0.889,0.689
			c-0.355,0.168-0.771,0.252-1.242,0.252c-0.151,0-0.321-0.017-0.51-0.047c-0.188-0.033-0.374-0.084-0.558-0.156
			c-0.185-0.072-0.358-0.17-0.522-0.295c-0.164-0.123-0.302-0.277-0.414-0.461h-0.023v3.19h-1.021v-8.567H-642.143z
			 M-638.477,123.266c-0.076-0.274-0.192-0.521-0.349-0.738c-0.155-0.215-0.355-0.387-0.6-0.516
			c-0.244-0.128-0.53-0.191-0.858-0.191c-0.344,0-0.636,0.068-0.876,0.203c-0.239,0.138-0.436,0.314-0.588,0.535
			c-0.151,0.219-0.262,0.469-0.33,0.75c-0.067,0.279-0.102,0.563-0.102,0.853c0,0.304,0.036,0.598,0.108,0.881
			c0.071,0.285,0.186,0.535,0.342,0.75c0.155,0.217,0.357,0.392,0.605,0.522s0.548,0.197,0.9,0.197c0.352,0,0.646-0.068,0.882-0.203
			c0.236-0.137,0.426-0.315,0.57-0.541c0.144-0.224,0.248-0.479,0.312-0.768c0.064-0.289,0.097-0.584,0.097-0.889
			C-638.363,123.824-638.401,123.541-638.477,123.266z"/>
		<path fill="#0072BC" d="M-636.575,121.063h1.309l1.487,2.172l1.549-2.172h1.224l-2.136,2.856l2.399,3.349h-1.308l-1.729-2.568
			l-1.728,2.568h-1.236l2.328-3.265L-636.575,121.063z"/>
		<path fill="#0072BC" d="M-626.567,123.451v0.961h-3.469v-0.961H-626.567z"/>
		<path fill="#0072BC" d="M-622.715,127.268v-6.096h-2.208v-0.816c0.288,0,0.568-0.021,0.84-0.065
			c0.272-0.043,0.519-0.125,0.738-0.246c0.22-0.119,0.406-0.283,0.558-0.491c0.152-0.208,0.256-0.472,0.313-0.792h0.78v8.509h-1.021
			V127.268z"/>
		<path fill="#0072BC" d="M-618.635,120.572c0.112-0.369,0.286-0.688,0.521-0.955c0.236-0.268,0.53-0.479,0.883-0.629
			c0.352-0.152,0.752-0.229,1.199-0.229c0.368,0,0.715,0.054,1.038,0.162c0.324,0.106,0.606,0.265,0.847,0.468
			c0.239,0.204,0.43,0.459,0.569,0.762c0.141,0.305,0.21,0.656,0.21,1.057c0,0.377-0.058,0.709-0.174,0.996
			c-0.116,0.289-0.27,0.547-0.462,0.773c-0.191,0.228-0.412,0.436-0.66,0.619c-0.248,0.182-0.504,0.358-0.768,0.526
			c-0.264,0.16-0.528,0.317-0.792,0.476c-0.264,0.155-0.506,0.321-0.726,0.498c-0.221,0.176-0.408,0.364-0.564,0.569
			c-0.156,0.203-0.258,0.438-0.306,0.701h4.367v0.899h-5.556c0.04-0.504,0.13-0.934,0.271-1.289c0.14-0.356,0.317-0.666,0.533-0.932
			c0.217-0.264,0.46-0.495,0.732-0.695c0.271-0.199,0.556-0.388,0.852-0.563c0.36-0.224,0.677-0.431,0.948-0.617
			c0.272-0.187,0.498-0.379,0.678-0.569c0.181-0.191,0.316-0.4,0.408-0.625c0.092-0.224,0.138-0.482,0.138-0.779
			c0-0.231-0.044-0.441-0.132-0.631c-0.088-0.188-0.206-0.35-0.354-0.484c-0.148-0.137-0.322-0.24-0.522-0.313
			s-0.412-0.107-0.636-0.107c-0.296,0-0.55,0.063-0.762,0.186c-0.212,0.124-0.387,0.286-0.522,0.486
			c-0.136,0.199-0.233,0.426-0.294,0.678c-0.06,0.252-0.086,0.506-0.078,0.762h-1.02
			C-618.792,121.34-618.748,120.939-618.635,120.572z"/>
		<path fill="#0072BC" d="M-612.095,122.119c0.016-0.336,0.056-0.664,0.12-0.983c0.063-0.319,0.156-0.624,0.275-0.911
			c0.12-0.289,0.284-0.541,0.492-0.757s0.471-0.388,0.786-0.517c0.316-0.127,0.694-0.191,1.134-0.191
			c0.44,0,0.818,0.064,1.135,0.191c0.315,0.129,0.577,0.301,0.785,0.517s0.372,0.468,0.492,0.757
			c0.12,0.287,0.212,0.592,0.276,0.911c0.063,0.319,0.104,0.647,0.12,0.983c0.016,0.336,0.023,0.66,0.023,0.973
			c0,0.313-0.008,0.637-0.023,0.973c-0.017,0.336-0.057,0.664-0.12,0.982c-0.064,0.32-0.156,0.623-0.276,0.906
			c-0.12,0.285-0.284,0.535-0.492,0.75c-0.208,0.217-0.468,0.387-0.779,0.51c-0.313,0.125-0.692,0.188-1.141,0.188
			c-0.439,0-0.817-0.063-1.134-0.188c-0.315-0.123-0.578-0.293-0.786-0.51c-0.208-0.215-0.372-0.465-0.492-0.75
			c-0.119-0.283-0.212-0.586-0.275-0.906c-0.064-0.318-0.104-0.646-0.12-0.982s-0.024-0.659-0.024-0.973
			C-612.119,122.779-612.111,122.455-612.095,122.119z M-611.009,124.154c0.021,0.396,0.084,0.768,0.192,1.115
			c0.107,0.347,0.281,0.643,0.521,0.881c0.24,0.24,0.576,0.36,1.008,0.36c0.433,0,0.769-0.12,1.009-0.36
			c0.239-0.238,0.413-0.533,0.521-0.881c0.108-0.349,0.172-0.721,0.192-1.115c0.02-0.396,0.029-0.756,0.029-1.074
			c0-0.209-0.002-0.438-0.006-0.689s-0.023-0.505-0.06-0.757c-0.036-0.253-0.088-0.498-0.156-0.737s-0.168-0.451-0.3-0.631
			s-0.298-0.326-0.498-0.438c-0.2-0.112-0.444-0.168-0.732-0.168s-0.531,0.056-0.731,0.168c-0.2,0.111-0.366,0.258-0.498,0.438
			s-0.232,0.392-0.3,0.631c-0.068,0.239-0.12,0.484-0.156,0.737c-0.036,0.252-0.056,0.505-0.06,0.757
			c-0.005,0.252-0.007,0.48-0.007,0.689C-611.039,123.398-611.029,123.758-611.009,124.154z"/>
		<path fill="#0072BC" d="M-604.127,121.063v0.842h0.024c0.168-0.346,0.432-0.596,0.792-0.75c0.359-0.156,0.756-0.234,1.188-0.234
			c0.48,0,0.898,0.088,1.254,0.264c0.356,0.176,0.652,0.414,0.889,0.715c0.235,0.3,0.414,0.646,0.533,1.037
			c0.12,0.394,0.181,0.81,0.181,1.248c0,0.439-0.059,0.855-0.174,1.248c-0.116,0.394-0.292,0.734-0.528,1.025
			c-0.236,0.293-0.532,0.521-0.888,0.689c-0.356,0.168-0.771,0.252-1.242,0.252c-0.152,0-0.322-0.017-0.51-0.047
			c-0.188-0.033-0.374-0.084-0.559-0.156c-0.184-0.072-0.357-0.17-0.521-0.295c-0.164-0.123-0.303-0.277-0.414-0.461h-0.024v3.19
			h-1.02v-8.567H-604.127z M-600.461,123.266c-0.076-0.274-0.191-0.521-0.348-0.738c-0.156-0.215-0.356-0.387-0.601-0.516
			c-0.243-0.128-0.529-0.191-0.857-0.191c-0.344,0-0.636,0.068-0.876,0.203c-0.24,0.138-0.437,0.314-0.588,0.535
			c-0.152,0.219-0.263,0.469-0.33,0.75c-0.068,0.279-0.103,0.563-0.103,0.853c0,0.304,0.036,0.598,0.108,0.881
			c0.072,0.285,0.186,0.535,0.342,0.75c0.156,0.217,0.358,0.392,0.606,0.522s0.548,0.197,0.899,0.197
			c0.353,0,0.646-0.068,0.882-0.203c0.236-0.137,0.427-0.315,0.57-0.541c0.145-0.224,0.248-0.479,0.313-0.768
			c0.063-0.289,0.096-0.584,0.096-0.889C-600.347,123.824-600.385,123.541-600.461,123.266z"/>
		<path fill="#0072BC" d="M-598.56,121.063h1.308l1.488,2.172l1.548-2.172h1.224l-2.136,2.856l2.4,3.349h-1.309l-1.728-2.568
			l-1.729,2.568h-1.235l2.328-3.265L-598.56,121.063z"/>
	</g>
	<g display="inline">
		<path fill="#0072BC" d="M-441.159,104.299v7.607h4.536v0.961h-5.676v-8.568H-441.159z"/>
		<path fill="#0072BC" d="M-431.031,112.998c-0.264,0-0.475-0.073-0.631-0.221c-0.154-0.148-0.232-0.392-0.232-0.728
			c-0.28,0.336-0.606,0.578-0.979,0.728c-0.373,0.146-0.773,0.221-1.207,0.221c-0.278,0-0.543-0.029-0.791-0.09
			s-0.467-0.16-0.653-0.299c-0.188-0.142-0.336-0.32-0.443-0.541c-0.109-0.221-0.162-0.486-0.162-0.799
			c0-0.352,0.061-0.64,0.18-0.863c0.119-0.225,0.277-0.405,0.475-0.545c0.196-0.141,0.42-0.246,0.672-0.318s0.511-0.133,0.774-0.18
			c0.278-0.057,0.546-0.1,0.798-0.127s0.474-0.067,0.666-0.119c0.191-0.053,0.344-0.129,0.456-0.229
			c0.11-0.101,0.168-0.246,0.168-0.438c0-0.226-0.042-0.404-0.126-0.541c-0.084-0.136-0.192-0.239-0.324-0.312
			s-0.28-0.121-0.444-0.145s-0.326-0.037-0.484-0.037c-0.434,0-0.792,0.083-1.08,0.246c-0.288,0.164-0.444,0.475-0.469,0.931h-1.021
			c0.017-0.384,0.097-0.708,0.24-0.972c0.143-0.264,0.336-0.479,0.574-0.643c0.24-0.164,0.518-0.281,0.828-0.354
			c0.313-0.072,0.642-0.108,0.984-0.108c0.28,0,0.559,0.021,0.834,0.061c0.276,0.041,0.526,0.123,0.75,0.246
			c0.225,0.125,0.404,0.299,0.54,0.521s0.204,0.518,0.204,0.877v3.19c0,0.239,0.014,0.416,0.042,0.528
			c0.028,0.111,0.122,0.168,0.282,0.168c0.088,0,0.19-0.021,0.313-0.061v0.792C-430.476,112.947-430.719,112.998-431.031,112.998z
			 M-432.459,109.873c-0.209,0.044-0.426,0.08-0.653,0.107c-0.229,0.027-0.46,0.061-0.69,0.096c-0.231,0.037-0.44,0.095-0.624,0.174
			c-0.184,0.08-0.334,0.195-0.449,0.343c-0.117,0.147-0.174,0.351-0.174,0.606c0,0.168,0.033,0.31,0.102,0.426
			c0.067,0.115,0.156,0.209,0.265,0.281c0.107,0.072,0.235,0.125,0.385,0.156c0.147,0.031,0.297,0.049,0.449,0.049
			c0.336,0,0.624-0.047,0.864-0.139c0.238-0.093,0.436-0.209,0.588-0.349c0.15-0.142,0.265-0.293,0.336-0.457
			c0.07-0.163,0.107-0.317,0.107-0.461v-1.045C-432.084,109.759-432.252,109.828-432.459,109.873z"/>
		<path fill="#0072BC" d="M-428.428,106.662v1.309h0.023c0.247-0.504,0.553-0.876,0.911-1.115c0.36-0.239,0.816-0.353,1.369-0.336
			v1.08c-0.408,0-0.756,0.056-1.045,0.168c-0.287,0.111-0.52,0.275-0.695,0.491c-0.175,0.216-0.305,0.478-0.385,0.786
			s-0.119,0.662-0.119,1.063v2.761h-1.021v-6.205L-428.428,106.662L-428.428,106.662z"/>
		<path fill="#0072BC" d="M-421.035,114.619c-0.465,0.504-1.191,0.756-2.184,0.756c-0.289,0-0.582-0.032-0.883-0.096
			c-0.3-0.064-0.572-0.168-0.816-0.313s-0.444-0.332-0.604-0.563c-0.16-0.232-0.248-0.517-0.265-0.853h1.021
			c0.008,0.185,0.065,0.341,0.174,0.468c0.108,0.129,0.24,0.231,0.396,0.313c0.156,0.081,0.326,0.139,0.511,0.175
			c0.184,0.036,0.358,0.054,0.526,0.054c0.337,0,0.621-0.059,0.854-0.174c0.23-0.115,0.425-0.275,0.576-0.48
			c0.15-0.202,0.262-0.448,0.33-0.737c0.066-0.287,0.103-0.604,0.103-0.947v-0.407h-0.024c-0.177,0.385-0.441,0.666-0.798,0.846
			c-0.355,0.181-0.733,0.271-1.135,0.271c-0.464,0-0.867-0.085-1.211-0.253c-0.345-0.168-0.633-0.394-0.865-0.679
			c-0.23-0.283-0.405-0.615-0.521-0.996c-0.116-0.379-0.174-0.781-0.174-1.205c0-0.367,0.048-0.746,0.145-1.135
			c0.096-0.387,0.256-0.739,0.479-1.057c0.224-0.314,0.521-0.574,0.888-0.779c0.368-0.203,0.82-0.307,1.354-0.307
			c0.394,0,0.752,0.088,1.08,0.26s0.584,0.43,0.77,0.772h0.013v-0.889h0.959v5.677C-420.34,113.354-420.572,114.115-421.035,114.619
			z M-422.338,111.828c0.236-0.139,0.426-0.323,0.57-0.551c0.145-0.229,0.25-0.486,0.317-0.774s0.103-0.576,0.103-0.864
			c0-0.271-0.031-0.539-0.096-0.805c-0.064-0.264-0.166-0.502-0.308-0.713c-0.14-0.213-0.322-0.383-0.545-0.51
			c-0.225-0.129-0.496-0.193-0.816-0.193c-0.327,0-0.607,0.063-0.84,0.188c-0.231,0.123-0.422,0.289-0.569,0.498
			c-0.148,0.207-0.257,0.447-0.324,0.72c-0.068,0.271-0.103,0.557-0.103,0.853c0,0.28,0.027,0.561,0.084,0.84
			c0.057,0.28,0.152,0.534,0.287,0.764c0.138,0.228,0.316,0.412,0.541,0.551c0.225,0.141,0.504,0.211,0.84,0.211
			C-422.86,112.041-422.574,111.969-422.338,111.828z"/>
		<path fill="#0072BC" d="M-414.412,112.471c-0.464,0.353-1.048,0.527-1.752,0.527c-0.496,0-0.926-0.08-1.289-0.239
			c-0.364-0.159-0.671-0.384-0.918-0.672c-0.248-0.288-0.435-0.632-0.559-1.032c-0.124-0.399-0.194-0.836-0.21-1.309
			c0-0.471,0.071-0.903,0.216-1.295c0.146-0.393,0.346-0.732,0.605-1.021c0.259-0.289,0.567-0.512,0.925-0.672
			c0.354-0.16,0.745-0.24,1.17-0.24c0.552,0,1.01,0.114,1.374,0.344c0.363,0.228,0.656,0.518,0.876,0.869
			c0.22,0.353,0.372,0.735,0.456,1.151s0.117,0.813,0.102,1.188h-4.644c-0.009,0.271,0.023,0.529,0.096,0.773
			s0.188,0.461,0.349,0.647c0.159,0.188,0.363,0.338,0.611,0.45c0.248,0.111,0.54,0.168,0.876,0.168
			c0.434,0,0.786-0.101,1.063-0.301c0.276-0.199,0.459-0.504,0.547-0.912h1.008C-413.648,111.595-413.947,112.119-414.412,112.471z
			 M-414.658,108.486c-0.092-0.217-0.215-0.402-0.37-0.559c-0.156-0.156-0.342-0.279-0.554-0.371
			c-0.212-0.093-0.444-0.14-0.701-0.14c-0.265,0-0.503,0.047-0.715,0.14c-0.212,0.092-0.395,0.219-0.546,0.377
			c-0.15,0.16-0.271,0.348-0.359,0.559c-0.089,0.213-0.141,0.438-0.155,0.679h3.563
			C-414.512,108.932-414.566,108.703-414.658,108.486z"/>
		<path fill="#0072BC" d="M-411.436,106.662v1.309h0.022c0.248-0.504,0.554-0.876,0.912-1.115c0.359-0.239,0.816-0.353,1.368-0.336
			v1.08c-0.408,0-0.756,0.056-1.044,0.168c-0.288,0.111-0.521,0.275-0.696,0.491s-0.304,0.478-0.384,0.786s-0.12,0.662-0.12,1.063
			v2.761h-1.021v-6.205L-411.436,106.662L-411.436,106.662z"/>
		<path fill="#0072BC" d="M-458.535,121.963v-0.9h1.044v-0.924c0-0.504,0.146-0.887,0.438-1.146c0.291-0.261,0.717-0.39,1.277-0.39
			c0.096,0,0.206,0.008,0.33,0.023c0.123,0.016,0.233,0.039,0.329,0.072v0.887c-0.088-0.031-0.184-0.053-0.287-0.064
			c-0.104-0.013-0.2-0.02-0.288-0.02c-0.248,0-0.439,0.049-0.576,0.145c-0.136,0.097-0.203,0.28-0.203,0.554v0.862h1.199v0.9h-1.199
			v5.305h-1.021v-5.305H-458.535z"/>
		<path fill="#0072BC" d="M-454.504,122.893c0.129-0.396,0.32-0.74,0.576-1.031c0.256-0.293,0.572-0.522,0.948-0.69
			s0.808-0.252,1.296-0.252c0.496,0,0.93,0.084,1.303,0.252c0.371,0.168,0.687,0.397,0.941,0.69
			c0.256,0.291,0.446,0.636,0.575,1.031c0.129,0.396,0.191,0.822,0.191,1.277c0,0.457-0.063,0.881-0.191,1.271
			c-0.129,0.393-0.319,0.734-0.575,1.026s-0.57,0.521-0.941,0.685c-0.373,0.164-0.807,0.246-1.303,0.246
			c-0.488,0-0.92-0.082-1.296-0.246s-0.692-0.393-0.948-0.685s-0.447-0.635-0.576-1.026c-0.127-0.392-0.19-0.814-0.19-1.271
			C-454.695,123.715-454.631,123.289-454.504,122.893z M-453.465,125.172c0.1,0.293,0.237,0.537,0.414,0.732
			c0.176,0.195,0.381,0.346,0.617,0.449c0.235,0.104,0.485,0.156,0.75,0.156c0.264,0,0.514-0.052,0.75-0.156
			c0.235-0.104,0.44-0.254,0.618-0.449c0.176-0.195,0.313-0.439,0.414-0.732c0.101-0.291,0.148-0.625,0.148-1.002
			c0-0.375-0.049-0.709-0.148-1.002c-0.102-0.291-0.238-0.537-0.414-0.736c-0.178-0.201-0.382-0.354-0.618-0.457
			c-0.236-0.103-0.486-0.156-0.75-0.156c-0.265,0-0.515,0.054-0.75,0.156c-0.236,0.104-0.441,0.256-0.617,0.457
			c-0.177,0.199-0.314,0.445-0.414,0.736c-0.101,0.293-0.15,0.627-0.15,1.002C-453.615,124.547-453.565,124.881-453.465,125.172z"/>
		<path fill="#0072BC" d="M-446.547,121.063v1.31h0.023c0.248-0.504,0.553-0.877,0.912-1.117c0.358-0.239,0.815-0.353,1.367-0.336
			v1.08c-0.407,0-0.756,0.058-1.044,0.168c-0.288,0.113-0.521,0.276-0.695,0.492c-0.177,0.217-0.305,0.479-0.385,0.786
			c-0.08,0.308-0.119,0.662-0.119,1.063v2.76h-1.021v-6.203h0.962V121.063z"/>
		<path fill="#0072BC" d="M-437.656,127.268v-6.098h-2.206v-0.814c0.286,0,0.566-0.022,0.84-0.065
			c0.271-0.045,0.518-0.127,0.737-0.246c0.22-0.121,0.405-0.284,0.559-0.492c0.15-0.208,0.256-0.473,0.312-0.792h0.78v8.508
			H-437.656L-437.656,127.268z"/>
		<path fill="#0072BC" d="M-433.575,120.57c0.112-0.367,0.286-0.687,0.522-0.953c0.235-0.27,0.529-0.479,0.881-0.631
			c0.354-0.151,0.752-0.229,1.201-0.229c0.367,0,0.713,0.055,1.037,0.161c0.324,0.108,0.605,0.265,0.846,0.47
			c0.24,0.203,0.431,0.457,0.57,0.762c0.141,0.305,0.211,0.656,0.211,1.057c0,0.375-0.06,0.707-0.175,0.996
			c-0.116,0.287-0.271,0.545-0.462,0.773c-0.191,0.228-0.412,0.434-0.66,0.617s-0.504,0.36-0.769,0.528
			c-0.264,0.16-0.527,0.317-0.793,0.474c-0.264,0.155-0.506,0.322-0.725,0.498c-0.221,0.176-0.408,0.366-0.564,0.569
			c-0.155,0.205-0.258,0.438-0.307,0.703h4.369v0.899h-5.558c0.04-0.505,0.131-0.936,0.271-1.291
			c0.141-0.354,0.318-0.666,0.534-0.93s0.46-0.496,0.731-0.695c0.271-0.201,0.557-0.389,0.853-0.563
			c0.359-0.226,0.677-0.431,0.947-0.619c0.271-0.188,0.498-0.377,0.679-0.569c0.18-0.191,0.315-0.398,0.408-0.623
			c0.092-0.226,0.139-0.484,0.139-0.779c0-0.232-0.045-0.443-0.133-0.631c-0.088-0.188-0.206-0.351-0.354-0.486
			c-0.147-0.135-0.322-0.24-0.521-0.313c-0.2-0.072-0.412-0.107-0.637-0.107c-0.297,0-0.551,0.063-0.762,0.188
			c-0.213,0.123-0.387,0.285-0.521,0.484c-0.137,0.201-0.233,0.427-0.294,0.679c-0.062,0.252-0.087,0.507-0.078,0.763h-1.021
			C-433.731,121.338-433.688,120.938-433.575,120.57z"/>
		<path fill="#0072BC" d="M-427.035,122.119c0.017-0.336,0.057-0.664,0.119-0.984c0.064-0.32,0.156-0.624,0.276-0.912
			c0.12-0.287,0.284-0.539,0.492-0.756s0.47-0.389,0.786-0.516c0.315-0.129,0.692-0.192,1.134-0.192c0.44,0,0.816,0.063,1.134,0.192
			c0.316,0.127,0.578,0.299,0.786,0.516s0.372,0.469,0.492,0.756c0.12,0.288,0.212,0.592,0.275,0.912s0.104,0.648,0.119,0.984
			c0.018,0.336,0.024,0.66,0.024,0.972s-0.008,0.636-0.024,0.972c-0.016,0.336-0.056,0.664-0.119,0.984s-0.155,0.622-0.275,0.906
			c-0.12,0.283-0.284,0.533-0.492,0.75c-0.208,0.215-0.468,0.386-0.78,0.51c-0.312,0.123-0.69,0.186-1.14,0.186
			c-0.44,0-0.817-0.063-1.134-0.186c-0.316-0.124-0.578-0.295-0.786-0.51c-0.208-0.217-0.372-0.467-0.492-0.75
			c-0.12-0.284-0.212-0.586-0.276-0.906c-0.063-0.32-0.104-0.648-0.119-0.984c-0.017-0.336-0.023-0.66-0.023-0.972
			S-427.052,122.455-427.035,122.119z M-425.949,124.152c0.021,0.396,0.084,0.768,0.191,1.115c0.108,0.35,0.282,0.643,0.522,0.883
			c0.238,0.24,0.574,0.359,1.008,0.359c0.433,0,0.769-0.119,1.009-0.359c0.239-0.24,0.413-0.533,0.521-0.883
			c0.107-0.349,0.173-0.72,0.191-1.115c0.021-0.396,0.03-0.754,0.03-1.074c0-0.207-0.002-0.438-0.006-0.689
			c-0.005-0.252-0.024-0.504-0.061-0.756c-0.037-0.252-0.088-0.498-0.156-0.738c-0.067-0.239-0.168-0.449-0.301-0.629
			c-0.131-0.182-0.297-0.326-0.498-0.438c-0.198-0.111-0.442-0.168-0.73-0.168s-0.532,0.057-0.731,0.168
			c-0.201,0.112-0.367,0.258-0.498,0.438c-0.133,0.18-0.231,0.39-0.301,0.629c-0.069,0.24-0.119,0.486-0.156,0.738
			c-0.035,0.252-0.056,0.504-0.06,0.756s-0.006,0.482-0.006,0.689C-425.979,123.398-425.97,123.757-425.949,124.152z"/>
		<path fill="#0072BC" d="M-419.067,121.063v0.84h0.023c0.168-0.344,0.433-0.594,0.791-0.75c0.36-0.155,0.756-0.233,1.188-0.233
			c0.479,0,0.896,0.089,1.254,0.265c0.355,0.178,0.65,0.414,0.888,0.715c0.236,0.301,0.414,0.646,0.534,1.037
			c0.12,0.393,0.181,0.809,0.181,1.248c0,0.44-0.059,0.856-0.175,1.248c-0.116,0.393-0.292,0.733-0.528,1.026
			c-0.234,0.291-0.53,0.521-0.887,0.688s-0.771,0.252-1.242,0.252c-0.151,0-0.321-0.016-0.511-0.047
			c-0.189-0.033-0.374-0.084-0.558-0.156c-0.185-0.071-0.358-0.17-0.521-0.295c-0.164-0.123-0.303-0.276-0.414-0.461h-0.023v3.191
			h-1.021v-8.568H-419.067z M-415.401,123.266c-0.076-0.276-0.192-0.522-0.35-0.738c-0.157-0.217-0.354-0.389-0.6-0.517
			s-0.53-0.192-0.857-0.192c-0.345,0-0.637,0.068-0.877,0.205c-0.24,0.136-0.436,0.313-0.588,0.533s-0.262,0.471-0.33,0.75
			c-0.067,0.28-0.102,0.564-0.102,0.853c0,0.305,0.036,0.599,0.106,0.883c0.072,0.283,0.188,0.533,0.343,0.75
			c0.155,0.216,0.357,0.39,0.606,0.521c0.247,0.133,0.547,0.198,0.899,0.198c0.352,0,0.646-0.067,0.882-0.204
			c0.235-0.136,0.426-0.315,0.569-0.539c0.145-0.225,0.248-0.479,0.313-0.77c0.063-0.287,0.097-0.584,0.097-0.887
			C-415.287,123.822-415.326,123.541-415.401,123.266z"/>
		<path fill="#0072BC" d="M-413.5,121.063h1.31l1.486,2.172l1.548-2.172h1.226l-2.137,2.855l2.399,3.35h-1.309l-1.729-2.567
			l-1.728,2.567h-1.236l2.328-3.266L-413.5,121.063z"/>
		<path fill="#0072BC" d="M-397.6,123.822v0.816h-2.616v2.627h-0.815v-2.627h-2.615v-0.816h2.615v-2.627h0.815v2.627H-397.6z"/>
	</g>
	<path display="inline" fill="#FFFFFF" d="M-624.184,284.402c-8.995,0-16.289,7.295-16.289,16.291
		c0,7.197,4.667,13.303,11.141,15.457c0.814,0.148,1.112-0.354,1.112-0.785c0-0.387-0.014-1.411-0.022-2.771
		c-4.53,0.984-5.486-2.184-5.486-2.184c-0.741-1.883-1.81-2.383-1.81-2.383c-1.479-1.012,0.112-0.99,0.112-0.99
		c1.635,0.115,2.495,1.679,2.495,1.679c1.453,2.489,3.813,1.771,4.741,1.354c0.147-1.053,0.568-1.771,1.033-2.178
		c-3.616-0.412-7.42-1.81-7.42-8.052c0-1.778,0.636-3.231,1.678-4.37c-0.167-0.412-0.728-2.068,0.159-4.312
		c0,0,1.368-0.438,4.479,1.67c1.299-0.36,2.693-0.543,4.078-0.549c1.383,0.006,2.776,0.188,4.078,0.549
		c3.109-2.108,4.475-1.67,4.475-1.67c0.889,2.241,0.33,3.897,0.162,4.312c1.044,1.139,1.674,2.592,1.674,4.37
		c0,6.259-3.809,7.636-7.438,8.038c0.585,0.503,1.105,1.497,1.105,3.018c0,2.178-0.02,3.935-0.02,4.469
		c0,0.436,0.293,0.941,1.12,0.783c6.467-2.158,11.13-8.26,11.13-15.455C-607.894,291.697-615.188,284.402-624.184,284.402z"/>
	<g display="inline">
		<path fill="#FFFFFF" d="M-426.184,235.395c-33.348,0-60.388,27.035-60.388,60.389c0,26.681,17.303,49.316,41.297,57.302
			c3.018,0.56,4.126-1.312,4.126-2.905c0-1.438-0.057-6.197-0.082-11.242c-16.8,3.652-20.346-7.125-20.346-7.125
			c-2.747-6.979-6.704-8.836-6.704-8.836c-5.479-3.748,0.412-3.672,0.412-3.672c6.063,0.426,9.258,6.225,9.258,6.225
			c5.386,9.23,14.127,6.563,17.572,5.02c0.542-3.902,2.106-6.566,3.834-8.074c-13.413-1.526-27.514-6.705-27.514-29.845
			c0-6.593,2.359-11.979,6.223-16.209c-0.627-1.521-2.693-7.663,0.585-15.981c0,0,5.071-1.621,16.61,6.19
			c4.817-1.338,9.983-2.009,15.115-2.032c5.132,0.023,10.302,0.694,15.128,2.032c11.525-7.813,16.59-6.19,16.59-6.19
			c3.287,8.318,1.22,14.461,0.593,15.981c3.872,4.229,6.215,9.616,6.215,16.209c0,23.194-14.127,28.302-27.573,29.796
			c2.166,1.874,4.096,5.549,4.096,11.184c0,8.08-0.069,14.582-0.069,16.572c0,1.606,1.087,3.489,4.147,2.896
			c23.98-7.994,41.263-30.622,41.263-57.294C-365.796,262.43-392.833,235.395-426.184,235.395z"/>
		<path fill="#FFFFFF" d="M-463.699,322.098c-0.133,0.301-0.604,0.391-1.034,0.186c-0.438-0.197-0.685-0.606-0.542-0.907
			c0.13-0.31,0.603-0.396,1.04-0.188C-463.798,321.384-463.548,321.797-463.699,322.098L-463.699,322.098z"/>
		<path fill="#FFFFFF" d="M-461.253,324.826c-0.288,0.267-0.852,0.143-1.232-0.279c-0.396-0.421-0.47-0.984-0.178-1.255
			c0.297-0.267,0.844-0.142,1.238,0.278C-461.029,323.997-460.952,324.557-461.253,324.826L-461.253,324.826z"/>
		<path fill="#FFFFFF" d="M-458.872,328.305c-0.37,0.258-0.976,0.016-1.35-0.521c-0.37-0.537-0.37-1.182,0.009-1.439
			c0.374-0.258,0.971-0.025,1.351,0.508C-458.494,327.396-458.494,328.041-458.872,328.305L-458.872,328.305z"/>
		<path fill="#FFFFFF" d="M-455.61,331.664c-0.331,0.365-1.036,0.268-1.553-0.23c-0.527-0.486-0.675-1.179-0.344-1.543
			c0.336-0.365,1.045-0.264,1.564,0.23C-455.417,330.607-455.258,331.303-455.61,331.664L-455.61,331.664z"/>
		<path fill="#FFFFFF" d="M-451.11,333.615c-0.146,0.473-0.825,0.688-1.51,0.486c-0.684-0.207-1.13-0.762-0.991-1.238
			c0.142-0.478,0.823-0.7,1.513-0.485C-451.416,332.584-450.969,333.134-451.11,333.615L-451.11,333.615z"/>
		<path fill="#FFFFFF" d="M-446.168,333.977c0.018,0.498-0.563,0.912-1.281,0.92c-0.722,0.018-1.307-0.387-1.313-0.877
			c0-0.502,0.567-0.91,1.289-0.924C-446.757,333.082-446.168,333.482-446.168,333.977L-446.168,333.977z"/>
		<path fill="#FFFFFF" d="M-441.569,333.193c0.086,0.486-0.413,0.984-1.126,1.117c-0.701,0.129-1.351-0.172-1.439-0.652
			c-0.087-0.498,0.421-0.997,1.121-1.126C-442.3,332.408-441.66,332.7-441.569,333.193L-441.569,333.193z"/>
	</g>
	<g display="inline">
		<g>
			
				<line fill="none" stroke="#1981BC" stroke-linecap="round" stroke-miterlimit="10" x1="-551.895" y1="229.461" x2="-551.895" y2="229.961"/>
			
				<line fill="none" stroke="#1981BC" stroke-linecap="round" stroke-miterlimit="10" stroke-dasharray="0.9999,1.9999" x1="-551.895" y1="231.961" x2="-551.895" y2="365.954"/>
			
				<line fill="none" stroke="#1981BC" stroke-linecap="round" stroke-miterlimit="10" x1="-551.895" y1="366.954" x2="-551.895" y2="367.454"/>
		</g>
	</g>
	<g display="inline">
		<path fill="#0072BC" d="M-643.517,381.471c-0.38-0.277-0.866-0.414-1.458-0.414c-0.24,0-0.477,0.023-0.708,0.07
			c-0.232,0.049-0.438,0.129-0.618,0.24c-0.18,0.113-0.324,0.263-0.432,0.451c-0.108,0.188-0.162,0.422-0.162,0.701
			c0,0.264,0.078,0.479,0.233,0.643c0.156,0.164,0.364,0.298,0.624,0.4c0.261,0.104,0.555,0.19,0.883,0.26
			c0.327,0.066,0.661,0.142,1.002,0.221c0.34,0.08,0.674,0.175,1.002,0.283c0.328,0.107,0.622,0.254,0.882,0.438
			s0.468,0.416,0.624,0.695c0.156,0.281,0.233,0.633,0.233,1.057c0,0.457-0.102,0.846-0.306,1.17s-0.466,0.588-0.786,0.793
			c-0.319,0.203-0.678,0.353-1.074,0.443c-0.396,0.092-0.789,0.139-1.182,0.139c-0.479,0-0.934-0.061-1.362-0.181
			c-0.428-0.12-0.804-0.302-1.128-0.546c-0.323-0.244-0.58-0.557-0.768-0.938c-0.188-0.379-0.282-0.828-0.282-1.35h1.08
			c0,0.36,0.07,0.67,0.21,0.93c0.141,0.262,0.324,0.475,0.552,0.643c0.229,0.168,0.494,0.293,0.799,0.373
			c0.304,0.08,0.615,0.119,0.936,0.119c0.256,0,0.514-0.023,0.774-0.072c0.26-0.047,0.493-0.129,0.701-0.246
			c0.208-0.115,0.376-0.273,0.505-0.473c0.128-0.201,0.191-0.457,0.191-0.77c0-0.296-0.078-0.535-0.233-0.72
			c-0.156-0.185-0.364-0.334-0.624-0.45c-0.261-0.115-0.555-0.21-0.883-0.281c-0.328-0.072-0.662-0.146-1.002-0.224
			c-0.34-0.075-0.674-0.163-1.002-0.265c-0.328-0.1-0.623-0.23-0.882-0.396s-0.468-0.376-0.624-0.636s-0.234-0.586-0.234-0.979
			c0-0.433,0.089-0.807,0.265-1.123c0.176-0.314,0.41-0.574,0.702-0.779c0.292-0.203,0.624-0.355,0.995-0.455
			c0.372-0.102,0.755-0.15,1.146-0.15c0.44,0,0.848,0.053,1.224,0.156s0.706,0.268,0.99,0.492c0.284,0.224,0.508,0.506,0.672,0.846
			s0.254,0.746,0.271,1.219h-1.08C-642.915,382.191-643.137,381.746-643.517,381.471z"/>
		<path fill="#0072BC" d="M-639.24,382.664v0.912h0.024c0.464-0.705,1.132-1.057,2.004-1.057c0.384,0,0.732,0.08,1.044,0.239
			c0.313,0.16,0.532,0.433,0.66,0.816c0.208-0.337,0.482-0.597,0.822-0.78c0.34-0.186,0.714-0.275,1.122-0.275
			c0.312,0,0.594,0.033,0.846,0.102s0.468,0.175,0.648,0.318c0.18,0.145,0.319,0.33,0.42,0.559c0.1,0.229,0.149,0.502,0.149,0.822
			v4.547h-1.02V384.8c0-0.192-0.018-0.372-0.048-0.54c-0.031-0.168-0.093-0.314-0.181-0.438c-0.088-0.125-0.21-0.223-0.365-0.295
			c-0.156-0.072-0.358-0.107-0.606-0.107c-0.504,0-0.9,0.145-1.188,0.432c-0.287,0.289-0.432,0.672-0.432,1.152v3.863h-1.02V384.8
			c0-0.2-0.019-0.384-0.055-0.552s-0.098-0.314-0.186-0.438c-0.088-0.125-0.206-0.221-0.354-0.289
			c-0.147-0.067-0.338-0.102-0.569-0.102c-0.296,0-0.551,0.061-0.763,0.18c-0.212,0.121-0.384,0.265-0.516,0.433
			s-0.229,0.342-0.288,0.522c-0.06,0.18-0.09,0.329-0.09,0.449v3.863h-1.021v-6.203H-639.24L-639.24,382.664z"/>
		<path fill="#0072BC" d="M-625.199,389c-0.264,0-0.474-0.074-0.63-0.223c-0.155-0.147-0.233-0.391-0.233-0.727
			c-0.28,0.336-0.606,0.578-0.979,0.727c-0.372,0.147-0.773,0.223-1.206,0.223c-0.279,0-0.544-0.029-0.792-0.09
			s-0.466-0.16-0.653-0.301c-0.188-0.141-0.336-0.319-0.444-0.539c-0.108-0.221-0.162-0.486-0.162-0.799
			c0-0.353,0.061-0.641,0.18-0.863c0.12-0.225,0.278-0.406,0.475-0.547c0.195-0.141,0.42-0.246,0.672-0.318
			c0.252-0.07,0.51-0.131,0.773-0.18c0.28-0.057,0.547-0.098,0.799-0.125c0.252-0.028,0.474-0.068,0.666-0.121
			c0.191-0.051,0.344-0.127,0.456-0.229c0.111-0.101,0.168-0.246,0.168-0.438c0-0.223-0.042-0.403-0.126-0.539
			c-0.084-0.137-0.192-0.24-0.324-0.313c-0.132-0.074-0.28-0.121-0.444-0.146c-0.164-0.022-0.326-0.035-0.485-0.035
			c-0.433,0-0.792,0.082-1.08,0.246s-0.444,0.474-0.469,0.931h-1.02c0.016-0.385,0.096-0.709,0.24-0.974
			c0.144-0.265,0.336-0.478,0.575-0.642c0.24-0.164,0.517-0.282,0.828-0.354c0.313-0.071,0.641-0.106,0.984-0.106
			c0.28,0,0.558,0.02,0.834,0.061c0.276,0.039,0.526,0.121,0.75,0.246c0.224,0.123,0.404,0.298,0.54,0.521
			c0.136,0.225,0.204,0.516,0.204,0.875v3.192c0,0.24,0.014,0.416,0.042,0.526c0.027,0.113,0.122,0.168,0.281,0.168
			c0.089,0,0.192-0.02,0.313-0.06v0.792C-624.643,388.947-624.887,389-625.199,389z M-626.627,385.873
			c-0.208,0.045-0.426,0.08-0.654,0.107c-0.228,0.028-0.458,0.061-0.689,0.098c-0.232,0.035-0.44,0.094-0.624,0.174
			c-0.186,0.08-0.334,0.193-0.45,0.342s-0.174,0.35-0.174,0.605c0,0.168,0.034,0.311,0.102,0.426
			c0.068,0.117,0.156,0.211,0.265,0.283c0.107,0.07,0.235,0.123,0.384,0.154c0.147,0.033,0.298,0.049,0.45,0.049
			c0.336,0,0.624-0.045,0.863-0.139c0.24-0.092,0.437-0.207,0.589-0.349c0.151-0.14,0.264-0.291,0.336-0.455
			c0.071-0.164,0.107-0.317,0.107-0.463v-1.043C-626.251,385.76-626.419,385.83-626.627,385.873z"/>
		<path fill="#0072BC" d="M-622.439,380.3v8.567h-1.021V380.3H-622.439z"/>
		<path fill="#0072BC" d="M-619.775,380.3v8.567h-1.021V380.3H-619.775z"/>
		<path fill="#0072BC" d="M-674.938,397.963v-0.898h1.044v-0.925c0-0.503,0.146-0.886,0.438-1.146s0.719-0.391,1.278-0.391
			c0.096,0,0.206,0.008,0.33,0.022c0.124,0.017,0.234,0.041,0.33,0.072v0.889c-0.088-0.032-0.185-0.055-0.288-0.065
			c-0.104-0.012-0.2-0.019-0.288-0.019c-0.248,0-0.44,0.048-0.576,0.144c-0.136,0.098-0.204,0.281-0.204,0.553v0.864h1.2v0.898h-1.2
			v5.305h-1.02v-5.305L-674.938,397.963L-674.938,397.963z"/>
		<path fill="#0072BC" d="M-670.907,398.894c0.129-0.396,0.32-0.738,0.576-1.031c0.256-0.291,0.572-0.521,0.948-0.689
			s0.808-0.252,1.296-0.252c0.496,0,0.93,0.084,1.302,0.252s0.687,0.398,0.942,0.689c0.256,0.293,0.448,0.637,0.576,1.031
			c0.128,0.396,0.191,0.822,0.191,1.278c0,0.455-0.063,0.88-0.191,1.271c-0.128,0.393-0.32,0.733-0.576,1.025
			s-0.57,0.521-0.942,0.686c-0.372,0.163-0.806,0.245-1.302,0.245c-0.488,0-0.92-0.082-1.296-0.245
			c-0.376-0.164-0.692-0.394-0.948-0.686s-0.447-0.634-0.576-1.025c-0.128-0.393-0.191-0.816-0.191-1.271
			C-671.099,399.716-671.035,399.289-670.907,398.894z M-669.869,401.174c0.101,0.292,0.238,0.535,0.414,0.732
			c0.177,0.194,0.382,0.346,0.618,0.449c0.236,0.103,0.486,0.155,0.75,0.155s0.514-0.053,0.75-0.155
			c0.236-0.104,0.442-0.255,0.618-0.449c0.176-0.197,0.313-0.44,0.414-0.732c0.1-0.292,0.149-0.626,0.149-1.002
			c0-0.377-0.05-0.71-0.149-1.002c-0.101-0.293-0.238-0.538-0.414-0.738c-0.176-0.198-0.382-0.352-0.618-0.456
			c-0.236-0.104-0.486-0.155-0.75-0.155s-0.514,0.052-0.75,0.155c-0.236,0.104-0.442,0.258-0.618,0.456
			c-0.176,0.2-0.313,0.445-0.414,0.738c-0.1,0.292-0.149,0.625-0.149,1.002C-670.019,400.548-669.969,400.882-669.869,401.174z"/>
		<path fill="#0072BC" d="M-662.951,397.063v1.309h0.024c0.248-0.504,0.552-0.875,0.912-1.115c0.359-0.24,0.815-0.352,1.368-0.336
			V398c-0.408,0-0.756,0.056-1.044,0.168c-0.288,0.111-0.521,0.275-0.696,0.492c-0.176,0.215-0.304,0.478-0.384,0.785
			c-0.08,0.309-0.12,0.662-0.12,1.063v2.76h-1.021v-6.203h0.96V397.063z"/>
		<path fill="#0072BC" d="M-654.059,403.268v-6.096h-2.208v-0.815c0.288,0,0.567-0.021,0.84-0.066
			c0.271-0.043,0.518-0.125,0.738-0.246c0.22-0.119,0.405-0.283,0.558-0.491s0.256-0.472,0.313-0.792h0.779v8.508L-654.059,403.268
			L-654.059,403.268z"/>
		<path fill="#0072BC" d="M-646.115,396.008c-0.247-0.232-0.575-0.348-0.983-0.348c-0.433,0-0.78,0.105-1.044,0.316
			c-0.265,0.213-0.47,0.479-0.618,0.805c-0.148,0.324-0.25,0.674-0.306,1.051c-0.057,0.375-0.089,0.728-0.097,1.056l0.024,0.024
			c0.24-0.394,0.538-0.676,0.894-0.854c0.356-0.176,0.767-0.265,1.23-0.265c0.408,0,0.773,0.07,1.098,0.211
			c0.324,0.14,0.596,0.334,0.816,0.582c0.22,0.248,0.39,0.539,0.51,0.875c0.12,0.337,0.18,0.701,0.18,1.093
			c0,0.313-0.048,0.637-0.144,0.973s-0.254,0.643-0.475,0.918c-0.22,0.275-0.512,0.504-0.876,0.684
			c-0.363,0.181-0.813,0.271-1.35,0.271c-0.632,0-1.14-0.129-1.523-0.385c-0.385-0.256-0.681-0.584-0.889-0.983
			s-0.346-0.841-0.414-1.32c-0.067-0.479-0.102-0.943-0.102-1.392c0-0.583,0.05-1.149,0.149-1.698
			c0.101-0.547,0.271-1.033,0.511-1.457c0.239-0.425,0.56-0.765,0.96-1.021c0.399-0.257,0.903-0.385,1.512-0.385
			c0.704,0,1.264,0.186,1.68,0.559c0.416,0.371,0.656,0.909,0.721,1.613h-1.021C-645.719,396.547-645.867,396.24-646.115,396.008z
			 M-647.963,398.846c-0.216,0.101-0.4,0.236-0.552,0.408c-0.152,0.172-0.267,0.376-0.342,0.611
			c-0.076,0.235-0.114,0.485-0.114,0.75c0,0.264,0.04,0.512,0.12,0.744c0.08,0.231,0.193,0.432,0.342,0.6s0.332,0.303,0.552,0.402
			c0.22,0.101,0.47,0.149,0.75,0.149s0.526-0.05,0.738-0.149c0.212-0.101,0.39-0.238,0.534-0.414
			c0.144-0.176,0.254-0.378,0.33-0.605c0.075-0.229,0.113-0.467,0.113-0.715c0-0.264-0.033-0.514-0.102-0.75
			c-0.068-0.235-0.174-0.439-0.318-0.611c-0.144-0.172-0.323-0.311-0.54-0.414c-0.216-0.103-0.468-0.155-0.756-0.155
			S-647.747,398.746-647.963,398.846z"/>
		<path fill="#0072BC" d="M-642.143,397.063v0.842h0.023c0.168-0.346,0.433-0.596,0.792-0.75c0.36-0.156,0.756-0.234,1.188-0.234
			c0.479,0,0.897,0.088,1.254,0.264c0.356,0.177,0.652,0.414,0.888,0.715c0.236,0.3,0.414,0.646,0.534,1.037
			c0.12,0.394,0.18,0.81,0.18,1.248c0,0.439-0.058,0.855-0.174,1.248c-0.116,0.394-0.292,0.734-0.527,1.025
			c-0.236,0.293-0.532,0.521-0.889,0.689c-0.355,0.168-0.771,0.253-1.242,0.253c-0.151,0-0.321-0.018-0.51-0.049
			c-0.188-0.031-0.374-0.084-0.558-0.155c-0.185-0.072-0.358-0.17-0.522-0.294s-0.302-0.278-0.414-0.463h-0.023v3.191h-1.021v-8.567
			H-642.143L-642.143,397.063z M-638.477,399.266c-0.076-0.274-0.192-0.521-0.349-0.737c-0.155-0.217-0.355-0.389-0.6-0.517
			s-0.53-0.191-0.858-0.191c-0.344,0-0.636,0.067-0.876,0.204c-0.239,0.137-0.436,0.313-0.588,0.533
			c-0.151,0.221-0.262,0.471-0.33,0.75c-0.067,0.28-0.102,0.563-0.102,0.854c0,0.304,0.036,0.598,0.108,0.881
			c0.071,0.285,0.186,0.535,0.342,0.75c0.155,0.217,0.357,0.391,0.605,0.522s0.548,0.197,0.9,0.197c0.352,0,0.646-0.067,0.882-0.204
			c0.236-0.136,0.426-0.314,0.57-0.54c0.144-0.224,0.248-0.479,0.312-0.768c0.064-0.289,0.097-0.584,0.097-0.889
			C-638.363,399.824-638.401,399.541-638.477,399.266z"/>
		<path fill="#0072BC" d="M-636.575,397.063h1.309l1.487,2.173l1.549-2.173h1.224l-2.136,2.856l2.399,3.348h-1.308l-1.729-2.567
			l-1.728,2.567h-1.236l2.328-3.264L-636.575,397.063z"/>
		<path fill="#0072BC" d="M-626.567,399.451v0.961h-3.469v-0.961H-626.567z"/>
		<path fill="#0072BC" d="M-622.715,403.268v-6.096h-2.208v-0.815c0.288,0,0.568-0.021,0.84-0.066
			c0.272-0.043,0.519-0.125,0.738-0.246c0.22-0.119,0.406-0.283,0.558-0.491c0.152-0.208,0.256-0.472,0.313-0.792h0.78v8.508
			L-622.715,403.268L-622.715,403.268z"/>
		<path fill="#0072BC" d="M-618.635,396.572c0.112-0.369,0.286-0.688,0.521-0.955c0.236-0.268,0.53-0.479,0.883-0.629
			c0.352-0.152,0.752-0.229,1.199-0.229c0.368,0,0.715,0.054,1.038,0.162c0.324,0.106,0.606,0.265,0.847,0.468
			c0.239,0.204,0.43,0.459,0.569,0.763c0.141,0.304,0.21,0.655,0.21,1.056c0,0.377-0.058,0.709-0.174,0.996
			c-0.116,0.289-0.27,0.547-0.462,0.773c-0.191,0.228-0.412,0.436-0.66,0.618c-0.248,0.184-0.504,0.359-0.768,0.527
			c-0.264,0.16-0.528,0.318-0.792,0.475s-0.506,0.322-0.726,0.498c-0.221,0.176-0.408,0.365-0.564,0.57
			c-0.156,0.203-0.258,0.438-0.306,0.701h4.367v0.899h-5.556c0.04-0.504,0.13-0.934,0.271-1.29c0.14-0.355,0.317-0.666,0.533-0.931
			c0.217-0.264,0.46-0.495,0.732-0.695c0.271-0.198,0.556-0.388,0.852-0.563c0.36-0.225,0.677-0.431,0.948-0.617
			c0.272-0.187,0.498-0.379,0.678-0.57c0.181-0.19,0.316-0.399,0.408-0.624c0.092-0.224,0.138-0.482,0.138-0.779
			c0-0.231-0.044-0.441-0.132-0.631c-0.088-0.188-0.206-0.35-0.354-0.484c-0.148-0.137-0.322-0.24-0.522-0.313
			s-0.412-0.107-0.636-0.107c-0.296,0-0.55,0.063-0.762,0.186c-0.212,0.124-0.387,0.286-0.522,0.486
			c-0.136,0.199-0.233,0.426-0.294,0.678c-0.06,0.252-0.086,0.506-0.078,0.762h-1.02
			C-618.792,397.34-618.748,396.939-618.635,396.572z"/>
		<path fill="#0072BC" d="M-612.095,398.119c0.016-0.336,0.056-0.664,0.12-0.983c0.063-0.318,0.156-0.624,0.275-0.912
			c0.12-0.288,0.284-0.54,0.492-0.756s0.471-0.388,0.786-0.517c0.316-0.127,0.694-0.191,1.134-0.191c0.44,0,0.818,0.064,1.135,0.191
			c0.315,0.129,0.577,0.301,0.785,0.517s0.372,0.468,0.492,0.756s0.212,0.594,0.276,0.912c0.063,0.319,0.104,0.647,0.12,0.983
			c0.016,0.336,0.023,0.66,0.023,0.973c0,0.313-0.008,0.636-0.023,0.973c-0.017,0.336-0.057,0.663-0.12,0.982
			c-0.064,0.32-0.156,0.623-0.276,0.906c-0.12,0.285-0.284,0.535-0.492,0.75c-0.208,0.217-0.468,0.387-0.779,0.51
			c-0.313,0.125-0.692,0.188-1.141,0.188c-0.439,0-0.817-0.063-1.134-0.188c-0.315-0.123-0.578-0.293-0.786-0.51
			c-0.208-0.215-0.372-0.465-0.492-0.75c-0.119-0.283-0.212-0.586-0.275-0.906c-0.064-0.319-0.104-0.646-0.12-0.982
			c-0.016-0.337-0.024-0.659-0.024-0.973C-612.119,398.779-612.111,398.455-612.095,398.119z M-611.009,400.154
			c0.021,0.396,0.084,0.768,0.192,1.114c0.107,0.348,0.281,0.644,0.521,0.883s0.576,0.359,1.008,0.359
			c0.433,0,0.769-0.12,1.009-0.359c0.239-0.239,0.413-0.534,0.521-0.883c0.108-0.348,0.172-0.72,0.192-1.114
			c0.02-0.396,0.029-0.755,0.029-1.074c0-0.209-0.002-0.438-0.006-0.69s-0.023-0.504-0.06-0.756
			c-0.036-0.253-0.088-0.498-0.156-0.738c-0.068-0.238-0.168-0.449-0.3-0.63c-0.132-0.18-0.298-0.326-0.498-0.438
			c-0.2-0.112-0.444-0.168-0.732-0.168s-0.531,0.056-0.731,0.168c-0.2,0.111-0.366,0.258-0.498,0.438
			c-0.132,0.181-0.232,0.392-0.3,0.63c-0.068,0.24-0.12,0.485-0.156,0.738c-0.036,0.252-0.056,0.504-0.06,0.756
			c-0.005,0.252-0.007,0.481-0.007,0.69C-611.039,399.399-611.029,399.758-611.009,400.154z"/>
		<path fill="#0072BC" d="M-604.127,397.063v0.842h0.024c0.168-0.346,0.432-0.596,0.792-0.75c0.359-0.156,0.756-0.234,1.188-0.234
			c0.48,0,0.898,0.088,1.254,0.264c0.356,0.177,0.652,0.414,0.889,0.715c0.235,0.3,0.414,0.646,0.533,1.037
			c0.12,0.394,0.181,0.81,0.181,1.248c0,0.439-0.059,0.855-0.174,1.248c-0.116,0.394-0.292,0.734-0.528,1.025
			c-0.236,0.293-0.532,0.521-0.888,0.689c-0.356,0.168-0.771,0.253-1.242,0.253c-0.152,0-0.322-0.018-0.51-0.049
			c-0.188-0.031-0.374-0.084-0.559-0.155c-0.184-0.072-0.357-0.17-0.521-0.294s-0.303-0.278-0.414-0.463h-0.024v3.191h-1.02v-8.567
			H-604.127L-604.127,397.063z M-600.461,399.266c-0.076-0.274-0.191-0.521-0.348-0.737s-0.356-0.389-0.601-0.517
			c-0.243-0.128-0.529-0.191-0.857-0.191c-0.344,0-0.636,0.067-0.876,0.204s-0.437,0.313-0.588,0.533
			c-0.152,0.221-0.263,0.471-0.33,0.75c-0.068,0.28-0.103,0.563-0.103,0.854c0,0.304,0.036,0.598,0.108,0.881
			c0.072,0.285,0.186,0.535,0.342,0.75c0.156,0.217,0.358,0.391,0.606,0.522s0.548,0.197,0.899,0.197
			c0.353,0,0.646-0.067,0.882-0.204c0.236-0.136,0.427-0.314,0.57-0.54c0.145-0.224,0.248-0.479,0.313-0.768
			c0.063-0.289,0.096-0.584,0.096-0.889C-600.347,399.824-600.385,399.541-600.461,399.266z"/>
		<path fill="#0072BC" d="M-598.56,397.063h1.308l1.488,2.173l1.548-2.173h1.224l-2.136,2.856l2.4,3.348h-1.309l-1.728-2.567
			l-1.729,2.567h-1.235l2.328-3.264L-598.56,397.063z"/>
	</g>
	<g display="inline">
		<path fill="#0072BC" d="M-441.159,380.299v7.607h4.536v0.961h-5.676v-8.568H-441.159z"/>
		<path fill="#0072BC" d="M-431.031,388.998c-0.264,0-0.475-0.073-0.631-0.221c-0.154-0.148-0.232-0.392-0.232-0.728
			c-0.28,0.336-0.606,0.578-0.979,0.728c-0.373,0.146-0.773,0.221-1.207,0.221c-0.278,0-0.543-0.029-0.791-0.09
			s-0.467-0.16-0.653-0.299c-0.188-0.142-0.336-0.32-0.443-0.541c-0.109-0.221-0.162-0.486-0.162-0.799
			c0-0.352,0.061-0.64,0.18-0.863c0.119-0.225,0.277-0.405,0.475-0.545c0.196-0.142,0.42-0.246,0.672-0.318s0.511-0.133,0.774-0.18
			c0.278-0.057,0.546-0.1,0.798-0.127s0.474-0.067,0.666-0.119c0.191-0.053,0.344-0.129,0.456-0.229
			c0.11-0.101,0.168-0.246,0.168-0.438c0-0.226-0.042-0.404-0.126-0.541c-0.084-0.136-0.192-0.239-0.324-0.312
			s-0.28-0.121-0.444-0.145s-0.326-0.037-0.484-0.037c-0.434,0-0.792,0.083-1.08,0.246c-0.288,0.164-0.444,0.475-0.469,0.931h-1.021
			c0.017-0.384,0.097-0.708,0.24-0.972c0.143-0.264,0.336-0.479,0.574-0.643c0.24-0.164,0.518-0.281,0.828-0.354
			c0.313-0.072,0.642-0.108,0.984-0.108c0.28,0,0.559,0.021,0.834,0.061c0.276,0.041,0.526,0.123,0.75,0.246
			c0.225,0.125,0.404,0.299,0.54,0.521s0.204,0.518,0.204,0.877v3.19c0,0.239,0.014,0.416,0.042,0.528
			c0.028,0.111,0.122,0.168,0.282,0.168c0.088,0,0.19-0.021,0.313-0.061v0.792C-430.476,388.947-430.719,388.998-431.031,388.998z
			 M-432.459,385.873c-0.209,0.044-0.426,0.08-0.653,0.107c-0.229,0.027-0.46,0.061-0.69,0.096c-0.231,0.037-0.44,0.095-0.624,0.174
			c-0.184,0.08-0.334,0.195-0.449,0.343c-0.117,0.147-0.174,0.351-0.174,0.606c0,0.168,0.033,0.31,0.102,0.426
			c0.067,0.115,0.156,0.209,0.265,0.281c0.107,0.072,0.235,0.125,0.385,0.156c0.147,0.031,0.297,0.049,0.449,0.049
			c0.336,0,0.624-0.047,0.864-0.139c0.238-0.093,0.436-0.209,0.588-0.349c0.15-0.142,0.265-0.293,0.336-0.457
			c0.07-0.163,0.107-0.317,0.107-0.461v-1.045C-432.084,385.759-432.252,385.828-432.459,385.873z"/>
		<path fill="#0072BC" d="M-428.428,382.662v1.309h0.023c0.247-0.504,0.553-0.876,0.911-1.115c0.36-0.239,0.816-0.353,1.369-0.336
			v1.08c-0.408,0-0.756,0.055-1.045,0.168c-0.287,0.111-0.52,0.275-0.695,0.491c-0.175,0.216-0.305,0.478-0.385,0.786
			s-0.119,0.662-0.119,1.063v2.761h-1.021v-6.205L-428.428,382.662L-428.428,382.662z"/>
		<path fill="#0072BC" d="M-421.035,390.619c-0.465,0.504-1.191,0.756-2.184,0.756c-0.289,0-0.582-0.032-0.883-0.096
			c-0.3-0.064-0.572-0.168-0.816-0.313s-0.444-0.332-0.604-0.563c-0.16-0.232-0.248-0.516-0.265-0.853h1.021
			c0.008,0.185,0.065,0.341,0.174,0.468c0.108,0.129,0.24,0.231,0.396,0.313c0.156,0.081,0.326,0.139,0.511,0.175
			c0.184,0.036,0.358,0.054,0.526,0.054c0.337,0,0.621-0.059,0.854-0.174c0.23-0.115,0.425-0.275,0.576-0.48
			c0.15-0.202,0.262-0.448,0.33-0.737c0.066-0.287,0.103-0.604,0.103-0.947v-0.407h-0.024c-0.177,0.385-0.441,0.666-0.798,0.846
			c-0.355,0.181-0.733,0.271-1.135,0.271c-0.464,0-0.867-0.085-1.211-0.253c-0.345-0.168-0.633-0.394-0.865-0.679
			c-0.23-0.283-0.405-0.615-0.521-0.996c-0.116-0.379-0.174-0.781-0.174-1.205c0-0.367,0.048-0.746,0.145-1.135
			c0.096-0.387,0.256-0.739,0.479-1.057c0.224-0.314,0.521-0.574,0.888-0.779c0.368-0.203,0.82-0.307,1.354-0.307
			c0.394,0,0.752,0.088,1.08,0.26s0.584,0.43,0.77,0.772h0.013v-0.889h0.959v5.677C-420.34,389.354-420.572,390.115-421.035,390.619
			z M-422.338,387.828c0.236-0.139,0.426-0.323,0.57-0.551c0.145-0.229,0.25-0.486,0.317-0.774s0.103-0.575,0.103-0.864
			c0-0.271-0.031-0.539-0.096-0.805c-0.064-0.264-0.166-0.502-0.308-0.713c-0.14-0.213-0.322-0.383-0.545-0.51
			c-0.225-0.129-0.496-0.193-0.816-0.193c-0.327,0-0.607,0.063-0.84,0.188c-0.231,0.123-0.422,0.289-0.569,0.498
			c-0.148,0.207-0.257,0.447-0.324,0.72c-0.068,0.272-0.103,0.557-0.103,0.853c0,0.28,0.027,0.561,0.084,0.84
			c0.057,0.28,0.152,0.534,0.287,0.764c0.138,0.228,0.316,0.412,0.541,0.551c0.225,0.141,0.504,0.211,0.84,0.211
			C-422.86,388.041-422.574,387.969-422.338,387.828z"/>
		<path fill="#0072BC" d="M-414.412,388.471c-0.464,0.353-1.048,0.527-1.752,0.527c-0.496,0-0.926-0.08-1.289-0.239
			c-0.364-0.159-0.671-0.384-0.918-0.672c-0.248-0.288-0.435-0.632-0.559-1.032s-0.194-0.836-0.21-1.309
			c0-0.471,0.071-0.903,0.216-1.295c0.146-0.393,0.346-0.732,0.605-1.021c0.259-0.289,0.567-0.512,0.925-0.672
			c0.354-0.16,0.745-0.24,1.17-0.24c0.552,0,1.01,0.114,1.374,0.344c0.363,0.228,0.656,0.518,0.876,0.869
			c0.22,0.353,0.372,0.735,0.456,1.151s0.117,0.813,0.102,1.188h-4.644c-0.009,0.271,0.023,0.529,0.096,0.773
			s0.188,0.46,0.349,0.647c0.159,0.188,0.363,0.338,0.611,0.45c0.248,0.111,0.54,0.168,0.876,0.168c0.434,0,0.786-0.101,1.063-0.301
			c0.276-0.199,0.459-0.504,0.547-0.912h1.008C-413.648,387.596-413.947,388.119-414.412,388.471z M-414.658,384.486
			c-0.092-0.217-0.215-0.402-0.37-0.559c-0.156-0.156-0.342-0.279-0.554-0.371c-0.212-0.093-0.444-0.14-0.701-0.14
			c-0.265,0-0.503,0.047-0.715,0.14c-0.212,0.092-0.395,0.219-0.546,0.377c-0.15,0.16-0.271,0.348-0.359,0.559
			c-0.089,0.213-0.141,0.438-0.155,0.679h3.563C-414.512,384.932-414.566,384.703-414.658,384.486z"/>
		<path fill="#0072BC" d="M-411.436,382.662v1.309h0.022c0.248-0.504,0.554-0.876,0.912-1.115c0.359-0.239,0.816-0.353,1.368-0.336
			v1.08c-0.408,0-0.756,0.055-1.044,0.168c-0.288,0.111-0.521,0.275-0.696,0.491s-0.304,0.478-0.384,0.786s-0.12,0.662-0.12,1.063
			v2.761h-1.021v-6.205L-411.436,382.662L-411.436,382.662z"/>
		<path fill="#0072BC" d="M-458.535,397.963v-0.899h1.044v-0.925c0-0.504,0.146-0.887,0.438-1.146
			c0.291-0.261,0.717-0.39,1.277-0.39c0.096,0,0.206,0.008,0.33,0.023c0.123,0.016,0.233,0.039,0.329,0.072v0.887
			c-0.088-0.031-0.184-0.053-0.287-0.064c-0.104-0.013-0.2-0.02-0.288-0.02c-0.248,0-0.439,0.049-0.576,0.145
			c-0.136,0.097-0.203,0.28-0.203,0.554v0.862h1.199v0.9h-1.199v5.304h-1.021v-5.304H-458.535L-458.535,397.963z"/>
		<path fill="#0072BC" d="M-454.504,398.893c0.129-0.396,0.32-0.739,0.576-1.03c0.256-0.293,0.572-0.523,0.948-0.691
			s0.808-0.252,1.296-0.252c0.496,0,0.93,0.084,1.303,0.252c0.371,0.168,0.687,0.398,0.941,0.691
			c0.256,0.291,0.446,0.635,0.575,1.03c0.129,0.396,0.191,0.822,0.191,1.277c0,0.457-0.063,0.881-0.191,1.272
			s-0.319,0.733-0.575,1.025s-0.57,0.521-0.941,0.685c-0.373,0.164-0.807,0.246-1.303,0.246c-0.488,0-0.92-0.082-1.296-0.246
			s-0.692-0.393-0.948-0.685s-0.447-0.635-0.576-1.025c-0.127-0.393-0.19-0.815-0.19-1.272
			C-454.695,399.715-454.631,399.289-454.504,398.893z M-453.465,401.172c0.1,0.293,0.237,0.537,0.414,0.732
			c0.176,0.195,0.381,0.346,0.617,0.449c0.235,0.104,0.485,0.156,0.75,0.156c0.264,0,0.514-0.052,0.75-0.156
			c0.235-0.104,0.44-0.254,0.618-0.449c0.176-0.195,0.313-0.439,0.414-0.732c0.101-0.291,0.148-0.625,0.148-1.002
			c0-0.375-0.049-0.709-0.148-1.002c-0.102-0.291-0.238-0.537-0.414-0.737c-0.178-0.2-0.382-0.353-0.618-0.456
			c-0.236-0.103-0.486-0.155-0.75-0.155c-0.265,0-0.515,0.053-0.75,0.155c-0.236,0.104-0.441,0.257-0.617,0.456
			c-0.177,0.2-0.314,0.446-0.414,0.737c-0.101,0.293-0.15,0.627-0.15,1.002C-453.615,400.547-453.565,400.881-453.465,401.172z"/>
		<path fill="#0072BC" d="M-446.547,397.063v1.31h0.023c0.248-0.504,0.553-0.877,0.912-1.117c0.358-0.239,0.815-0.352,1.367-0.336
			v1.08c-0.407,0-0.756,0.057-1.044,0.168c-0.288,0.113-0.521,0.276-0.695,0.492c-0.177,0.217-0.305,0.479-0.385,0.787
			c-0.08,0.307-0.119,0.661-0.119,1.062v2.76h-1.021v-6.203h0.962V397.063z"/>
		<path fill="#0072BC" d="M-437.656,403.267v-6.097h-2.206v-0.814c0.286,0,0.566-0.022,0.84-0.065
			c0.271-0.045,0.518-0.127,0.737-0.246c0.22-0.121,0.405-0.284,0.559-0.492c0.15-0.208,0.256-0.473,0.312-0.792h0.78v8.508
			L-437.656,403.267L-437.656,403.267z"/>
		<path fill="#0072BC" d="M-433.575,396.57c0.112-0.367,0.286-0.687,0.522-0.953c0.235-0.27,0.529-0.479,0.881-0.631
			c0.354-0.151,0.752-0.229,1.201-0.229c0.367,0,0.713,0.055,1.037,0.161c0.324,0.108,0.605,0.265,0.846,0.47
			c0.24,0.203,0.431,0.457,0.57,0.762c0.141,0.305,0.211,0.655,0.211,1.057c0,0.375-0.06,0.707-0.175,0.996
			c-0.116,0.287-0.271,0.545-0.462,0.772c-0.191,0.229-0.412,0.435-0.66,0.618c-0.248,0.185-0.504,0.36-0.769,0.528
			c-0.264,0.16-0.527,0.317-0.793,0.474c-0.264,0.155-0.506,0.322-0.725,0.498c-0.221,0.176-0.408,0.366-0.564,0.569
			c-0.155,0.205-0.258,0.438-0.307,0.703h4.369v0.898h-5.558c0.04-0.504,0.131-0.935,0.271-1.29c0.141-0.354,0.318-0.666,0.534-0.93
			s0.46-0.496,0.731-0.696c0.271-0.199,0.557-0.388,0.853-0.563c0.359-0.226,0.677-0.431,0.947-0.619
			c0.271-0.188,0.498-0.377,0.679-0.569c0.18-0.191,0.315-0.398,0.408-0.624c0.092-0.225,0.139-0.483,0.139-0.778
			c0-0.232-0.045-0.443-0.133-0.631c-0.088-0.188-0.206-0.351-0.354-0.486c-0.147-0.135-0.322-0.24-0.521-0.313
			c-0.2-0.072-0.412-0.107-0.637-0.107c-0.297,0-0.551,0.063-0.762,0.188c-0.213,0.123-0.387,0.285-0.521,0.484
			c-0.137,0.201-0.233,0.427-0.294,0.679c-0.062,0.252-0.087,0.506-0.078,0.763h-1.021
			C-433.731,397.338-433.688,396.938-433.575,396.57z"/>
		<path fill="#0072BC" d="M-427.035,398.119c0.017-0.336,0.057-0.664,0.119-0.984c0.064-0.319,0.156-0.624,0.276-0.912
			c0.12-0.287,0.284-0.539,0.492-0.756s0.47-0.389,0.786-0.516c0.315-0.129,0.692-0.192,1.134-0.192c0.44,0,0.816,0.063,1.134,0.192
			c0.316,0.127,0.578,0.299,0.786,0.516s0.372,0.469,0.492,0.756c0.12,0.288,0.212,0.593,0.275,0.912
			c0.063,0.32,0.104,0.648,0.119,0.984c0.018,0.336,0.024,0.66,0.024,0.972c0,0.313-0.008,0.636-0.024,0.972
			c-0.016,0.337-0.056,0.664-0.119,0.984s-0.155,0.622-0.275,0.906c-0.12,0.283-0.284,0.533-0.492,0.75
			c-0.208,0.215-0.468,0.386-0.78,0.51c-0.312,0.123-0.69,0.187-1.14,0.187c-0.44,0-0.817-0.063-1.134-0.187
			c-0.316-0.124-0.578-0.295-0.786-0.51c-0.208-0.217-0.372-0.467-0.492-0.75c-0.12-0.284-0.212-0.586-0.276-0.906
			c-0.063-0.32-0.104-0.647-0.119-0.984c-0.017-0.336-0.023-0.659-0.023-0.972C-427.059,398.779-427.052,398.455-427.035,398.119z
			 M-425.949,400.152c0.021,0.396,0.084,0.768,0.191,1.115c0.108,0.35,0.282,0.643,0.522,0.883c0.238,0.239,0.574,0.359,1.008,0.359
			c0.433,0,0.769-0.12,1.009-0.359c0.239-0.24,0.413-0.533,0.521-0.883c0.107-0.349,0.173-0.72,0.191-1.115
			c0.021-0.396,0.03-0.754,0.03-1.074c0-0.207-0.002-0.438-0.006-0.689c-0.005-0.252-0.024-0.504-0.061-0.756
			c-0.037-0.252-0.088-0.498-0.156-0.738c-0.067-0.239-0.168-0.448-0.301-0.63c-0.131-0.181-0.297-0.325-0.498-0.438
			c-0.198-0.111-0.442-0.168-0.73-0.168s-0.532,0.057-0.731,0.168c-0.201,0.112-0.367,0.258-0.498,0.438
			c-0.133,0.182-0.231,0.391-0.301,0.63c-0.069,0.24-0.119,0.486-0.156,0.738c-0.035,0.252-0.056,0.504-0.06,0.756
			s-0.006,0.482-0.006,0.689C-425.979,399.398-425.97,399.757-425.949,400.152z"/>
		<path fill="#0072BC" d="M-419.067,397.063v0.841h0.023c0.168-0.345,0.433-0.595,0.791-0.75c0.36-0.156,0.756-0.234,1.188-0.234
			c0.479,0,0.896,0.089,1.254,0.265c0.355,0.178,0.65,0.414,0.888,0.715c0.236,0.301,0.414,0.646,0.534,1.037
			c0.12,0.393,0.181,0.809,0.181,1.248c0,0.44-0.059,0.856-0.175,1.248c-0.116,0.393-0.292,0.733-0.528,1.026
			c-0.234,0.291-0.53,0.521-0.887,0.688s-0.771,0.253-1.242,0.253c-0.151,0-0.321-0.017-0.511-0.049
			c-0.189-0.031-0.374-0.084-0.558-0.154c-0.185-0.072-0.358-0.17-0.521-0.295c-0.164-0.123-0.303-0.277-0.414-0.463h-0.023v3.192
			h-1.021v-8.568H-419.067L-419.067,397.063z M-415.401,399.265c-0.076-0.275-0.192-0.521-0.35-0.737
			c-0.157-0.217-0.354-0.389-0.6-0.517s-0.53-0.191-0.857-0.191c-0.345,0-0.637,0.067-0.877,0.204
			c-0.24,0.136-0.436,0.313-0.588,0.533c-0.152,0.222-0.262,0.472-0.33,0.75c-0.067,0.28-0.102,0.564-0.102,0.853
			c0,0.305,0.036,0.599,0.106,0.883c0.072,0.283,0.188,0.533,0.343,0.75c0.155,0.216,0.357,0.39,0.606,0.521
			c0.247,0.133,0.547,0.197,0.899,0.197c0.352,0,0.646-0.066,0.882-0.204c0.235-0.136,0.426-0.315,0.569-0.54
			c0.145-0.224,0.248-0.479,0.313-0.769c0.063-0.287,0.097-0.584,0.097-0.887C-415.287,399.822-415.326,399.541-415.401,399.265z"/>
		<path fill="#0072BC" d="M-413.5,397.063h1.31l1.486,2.173l1.548-2.173h1.226l-2.137,2.855l2.399,3.349h-1.309l-1.729-2.566
			l-1.728,2.566h-1.236l2.328-3.265L-413.5,397.063z"/>
		<path fill="#0072BC" d="M-397.6,399.822v0.815h-2.616v2.628h-0.815v-2.628h-2.615v-0.815h2.615v-2.627h0.815v2.627H-397.6z"/>
	</g>
</g>
<g id="Layer_2">
	<g>
		<path d="M60.388,0C27.041,0,0,27.035,0,60.389c0,26.68,17.304,49.315,41.297,57.301c3.019,0.56,4.126-1.311,4.126-2.904
			c0-1.439-0.056-6.197-0.082-11.243c-16.8,3.653-20.345-7.125-20.345-7.125c-2.747-6.979-6.705-8.836-6.705-8.836
			c-5.479-3.748,0.413-3.671,0.413-3.671c6.063,0.426,9.257,6.224,9.257,6.224c5.387,9.231,14.127,6.563,17.573,5.021
			c0.542-3.902,2.106-6.567,3.834-8.075c-13.413-1.526-27.514-6.705-27.514-29.844c0-6.593,2.358-11.979,6.223-16.209
			c-0.627-1.521-2.694-7.663,0.585-15.981c0,0,5.071-1.622,16.61,6.191c4.816-1.339,9.982-2.01,15.115-2.033
			c1.765,0.008,3.532,0.093,5.291,0.255c3.354,0.309,6.67,0.899,9.837,1.778c11.525-7.813,16.59-6.191,16.59-6.191
			c3.287,8.318,1.22,14.46,0.593,15.981c3.872,4.229,6.215,9.616,6.215,16.209c0,23.195-14.127,28.301-27.574,29.796
			c2.166,1.874,4.097,5.549,4.097,11.183c0,8.08-0.069,14.583-0.069,16.572c0,1.606,1.087,3.489,4.147,2.897
			c23.98-7.994,41.263-30.623,41.263-57.295C120.775,27.035,93.738,0,60.388,0z"/>
		<path d="M22.872,86.703c-0.133,0.301-0.604,0.391-1.035,0.186c-0.438-0.197-0.684-0.606-0.542-0.908
			c0.13-0.309,0.604-0.395,1.04-0.188C22.773,85.989,23.023,86.402,22.872,86.703L22.872,86.703z"/>
		<path d="M25.318,89.432c-0.288,0.268-0.853,0.144-1.233-0.279c-0.396-0.42-0.469-0.983-0.177-1.254
			c0.297-0.268,0.843-0.143,1.238,0.278C25.542,88.604,25.619,89.161,25.318,89.432L25.318,89.432z"/>
		<path d="M27.699,92.909c-0.37,0.258-0.976,0.017-1.35-0.521c-0.37-0.537-0.37-1.183,0.009-1.439
			c0.374-0.258,0.971-0.025,1.35,0.507C28.077,92.002,28.077,92.646,27.699,92.909L27.699,92.909z"/>
		<path d="M30.961,96.27c-0.331,0.365-1.036,0.268-1.552-0.23c-0.528-0.486-0.675-1.178-0.344-1.543
			c0.336-0.365,1.045-0.264,1.563,0.23C31.154,95.213,31.313,95.908,30.961,96.27L30.961,96.27z"/>
		<path d="M35.461,98.221c-0.146,0.473-0.824,0.688-1.509,0.486c-0.684-0.207-1.13-0.762-0.992-1.238
			c0.143-0.477,0.824-0.699,1.514-0.484C35.155,97.189,35.603,97.739,35.461,98.221L35.461,98.221z"/>
		<path d="M40.403,98.582c0.017,0.498-0.563,0.911-1.281,0.92c-0.722,0.018-1.307-0.387-1.313-0.877
			c0-0.503,0.566-0.911,1.289-0.924C39.814,97.688,40.403,98.088,40.403,98.582L40.403,98.582z"/>
		<path d="M45.002,97.8c0.086,0.485-0.413,0.984-1.126,1.117c-0.701,0.129-1.35-0.172-1.438-0.653
			c-0.087-0.498,0.421-0.996,1.121-1.125C44.271,97.014,44.911,97.307,45.002,97.8L45.002,97.8z"/>
	</g>
	<line fill="none" x1="263.105" y1="123.867" x2="333.816" y2="53.156"/>
</g>
</svg>
