<?xml version="1.0" encoding="utf-8"?>
<!-- Generator: Adobe Illustrator 16.0.0, SVG Export Plug-In . SVG Version: 6.00 Build 0)  -->
<!DOCTYPE svg PUBLIC "-//W3C//DTD SVG 1.1//EN" "http://www.w3.org/Graphics/SVG/1.1/DTD/svg11.dtd">
<svg version="1.1" id="Layer_1" xmlns="http://www.w3.org/2000/svg" xmlns:xlink="http://www.w3.org/1999/xlink" x="0px" y="0px"
	 width="116.608px" height="40.351px" viewBox="0 0 116.608 40.351" enable-background="new 0 0 116.608 40.351"
	 xml:space="preserve">
<g>
	<path fill="#F2F2F2" d="M0,21.266l12.6-7.59v2.82l-8.76,5.4l8.76,5.31v2.94L0,22.646V21.266z"/>
	<path fill="#F2F2F2" d="M18.629,23.336c0-1.08,0.19-2.025,0.57-2.835c0.379-0.81,1.03-1.505,1.95-2.085
		c0.36-0.24,0.775-0.49,1.245-0.75c0.47-0.26,0.915-0.564,1.335-0.915c0.42-0.35,0.775-0.77,1.065-1.26s0.435-1.075,0.435-1.755
		c0-0.561-0.105-1.055-0.315-1.485c-0.21-0.43-0.485-0.79-0.825-1.08c-0.34-0.29-0.73-0.51-1.17-0.66
		c-0.44-0.15-0.9-0.225-1.38-0.225c-0.5,0-0.975,0.075-1.425,0.225c-0.45,0.15-0.866,0.355-1.245,0.615
		c-0.38,0.26-0.72,0.565-1.02,0.915c-0.3,0.35-0.55,0.715-0.75,1.096l-1.77-1.171c0.26-0.62,0.61-1.17,1.05-1.65
		s0.94-0.885,1.5-1.215s1.155-0.58,1.785-0.75s1.275-0.255,1.935-0.255c0.74,0,1.47,0.115,2.19,0.345
		c0.72,0.23,1.36,0.585,1.92,1.065c0.56,0.48,1.01,1.08,1.35,1.8c0.34,0.72,0.51,1.57,0.51,2.549c0,0.761-0.105,1.41-0.315,1.951
		c-0.21,0.539-0.485,1.01-0.825,1.409c-0.34,0.4-0.74,0.75-1.2,1.05c-0.46,0.301-0.94,0.59-1.44,0.871
		c-0.36,0.199-0.72,0.41-1.08,0.629c-0.36,0.221-0.675,0.485-0.945,0.795c-0.27,0.311-0.49,0.686-0.66,1.125
		c-0.17,0.44-0.255,0.99-0.255,1.65H18.629z M18.689,29.666v-3.48h2.22v3.48H18.689z"/>
	<path fill="#F2F2F2" d="M46.499,28.887c-0.16,0.08-0.37,0.175-0.63,0.284c-0.26,0.11-0.555,0.22-0.885,0.33s-0.69,0.2-1.08,0.271
		c-0.39,0.069-0.795,0.104-1.215,0.104c-0.96,0-1.79-0.265-2.49-0.795c-0.701-0.53-1.05-1.354-1.05-2.476V16.076h-2.13v-2.07h2.13
		v-5.22h2.64v5.22h3.51v2.07h-3.51v9.72c0.04,0.581,0.229,1.001,0.57,1.261c0.34,0.26,0.74,0.389,1.2,0.389
		c0.52,0,0.995-0.084,1.425-0.254s0.725-0.305,0.885-0.405L46.499,28.887z"/>
	<path fill="#F2F2F2" d="M54.449,29.966c-1.26,0-2.5-0.194-3.72-0.585c-1.22-0.39-2.27-0.955-3.15-1.695l1.14-1.77
		c0.919,0.7,1.84,1.225,2.76,1.575s1.89,0.524,2.91,0.524c1.14,0,2.044-0.225,2.715-0.675c0.67-0.45,1.004-1.085,1.004-1.905
		c0-0.379-0.09-0.705-0.27-0.975s-0.449-0.505-0.81-0.705c-0.36-0.199-0.82-0.379-1.38-0.54c-0.561-0.159-1.21-0.329-1.95-0.51
		c-0.94-0.24-1.75-0.47-2.43-0.69c-0.68-0.219-1.24-0.479-1.68-0.779c-0.44-0.301-0.76-0.66-0.96-1.08
		c-0.2-0.42-0.3-0.939-0.3-1.561c0-0.779,0.155-1.475,0.465-2.084c0.31-0.61,0.735-1.121,1.275-1.531
		c0.54-0.409,1.174-0.719,1.905-0.93c0.73-0.21,1.515-0.314,2.355-0.314c1.18,0,2.279,0.189,3.3,0.57
		c1.021,0.379,1.88,0.88,2.58,1.5l-1.2,1.59c-0.66-0.58-1.4-1.016-2.22-1.306c-0.82-0.29-1.66-0.435-2.52-0.435
		c-0.96,0-1.775,0.205-2.445,0.615c-0.67,0.41-1.005,1.064-1.005,1.965c0,0.359,0.064,0.66,0.195,0.9
		c0.13,0.239,0.345,0.449,0.645,0.629c0.3,0.18,0.685,0.341,1.155,0.48c0.47,0.141,1.035,0.29,1.695,0.449
		c1.04,0.24,1.945,0.486,2.714,0.736s1.41,0.545,1.92,0.885c0.511,0.34,0.891,0.74,1.141,1.199c0.25,0.461,0.375,1.021,0.375,1.68
		c0,1.461-0.561,2.621-1.68,3.48C57.858,29.536,56.348,29.966,54.449,29.966z"/>
	<path fill="#F2F2F2" d="M71.819,29.966c-1.221,0-2.33-0.3-3.33-0.899c-1-0.601-1.791-1.381-2.37-2.34v2.939h-2.341v-21.9h2.641
		v9.36c0.66-1.021,1.471-1.84,2.43-2.46c0.961-0.619,2.08-0.93,3.36-0.93c1.08,0,2.05,0.23,2.91,0.689
		c0.859,0.461,1.595,1.065,2.204,1.815c0.61,0.75,1.08,1.62,1.41,2.61c0.33,0.989,0.496,2.005,0.496,3.045
		c0,1.1-0.191,2.14-0.57,3.119c-0.381,0.98-0.9,1.836-1.561,2.565c-0.66,0.73-1.445,1.31-2.354,1.739
		C73.833,29.751,72.858,29.966,71.819,29.966z M71.159,27.686c0.779,0,1.5-0.159,2.16-0.479c0.66-0.319,1.229-0.75,1.709-1.29
		c0.48-0.54,0.851-1.154,1.111-1.846c0.259-0.689,0.389-1.414,0.389-2.174s-0.125-1.495-0.375-2.205s-0.6-1.336-1.049-1.875
		c-0.451-0.541-0.99-0.976-1.621-1.305c-0.629-0.33-1.324-0.496-2.084-0.496c-0.561,0-1.091,0.101-1.59,0.301
		c-0.501,0.199-0.966,0.465-1.396,0.795c-0.431,0.33-0.81,0.715-1.14,1.154c-0.33,0.44-0.615,0.91-0.855,1.41v4.53
		c0.1,0.5,0.314,0.96,0.645,1.38s0.721,0.785,1.17,1.096c0.451,0.31,0.931,0.555,1.44,0.734
		C70.184,27.596,70.678,27.686,71.159,27.686z"/>
	<path fill="#F2F2F2" d="M92.248,23.336c0-1.08,0.19-2.025,0.57-2.835s1.03-1.505,1.95-2.085c0.359-0.24,0.774-0.49,1.244-0.75
		c0.471-0.26,0.916-0.564,1.336-0.915c0.42-0.35,0.774-0.77,1.064-1.26s0.436-1.075,0.436-1.755c0-0.561-0.105-1.055-0.315-1.485
		c-0.21-0.43-0.485-0.79-0.825-1.08c-0.34-0.29-0.73-0.51-1.17-0.66c-0.439-0.15-0.9-0.225-1.38-0.225
		c-0.5,0-0.976,0.075-1.425,0.225c-0.45,0.15-0.865,0.355-1.245,0.615c-0.38,0.26-0.72,0.565-1.021,0.915
		c-0.299,0.35-0.55,0.715-0.75,1.096l-1.77-1.171c0.26-0.62,0.609-1.17,1.05-1.65s0.94-0.885,1.5-1.215s1.155-0.58,1.785-0.75
		s1.274-0.255,1.935-0.255c0.74,0,1.471,0.115,2.19,0.345c0.72,0.23,1.36,0.585,1.92,1.065s1.01,1.08,1.351,1.8
		c0.34,0.72,0.51,1.57,0.51,2.549c0,0.761-0.105,1.41-0.315,1.951c-0.21,0.539-0.485,1.01-0.825,1.409
		c-0.34,0.4-0.74,0.75-1.199,1.05c-0.461,0.301-0.941,0.59-1.44,0.871c-0.36,0.199-0.72,0.41-1.08,0.629
		c-0.36,0.221-0.675,0.485-0.944,0.795c-0.271,0.311-0.49,0.686-0.66,1.125c-0.17,0.44-0.256,0.99-0.256,1.65H92.248z
		 M92.307,29.666v-3.48h2.221v3.48H92.307z"/>
	<path fill="#F2F2F2" d="M116.608,22.646l-12.601,7.5v-2.94l8.761-5.31l-8.761-5.4v-2.82l12.601,7.59V22.646z"/>
</g>
</svg>
